<?xml version="1.0" standalone="no"?>
<!DOCTYPE svg PUBLIC "-//W3C//DTD SVG 1.1//EN" "http://www.w3.org/Graphics/SVG/1.1/DTD/svg11.dtd" >
<svg>
<metadata>
Created by FontForge 20090622 at Fri Nov 27 04:13:11 2015
 By deploy user
Copyright (c) 2008 by NORM, Dimitri Bruni + Manuel Krebs. All rights reserved.
</metadata>
<defs>
<font id="ReplicaStd-Regular" horiz-adv-x="580" >
  <font-face 
    font-family="Replica Std Regular"
    font-weight="400"
    font-stretch="normal"
    units-per-em="1000"
    panose-1="2 0 5 3 3 0 0 2 0 4"
    ascent="780"
    descent="-220"
    x-height="500"
    cap-height="700"
    bbox="-50 -220 1560 900"
    underline-thickness="20"
    underline-position="-130"
    unicode-range="U+000D-U+FB04"
  />
<missing-glyph horiz-adv-x="660" 
d="M580 10l-10 -10h-480l-10 10v680l10 10h480l10 -10v-680zM110 660v-620l10 -10h420l10 10v620l-10 10h-420z" />
    <glyph glyph-name="f_i" unicode="fi" horiz-adv-x="590" 
d="M530 590l-10 -10h-80l-10 10v80l10 10h80l10 -10v-80zM530 10l-10 -10h-80l-10 10v390l-10 10h-190l-10 -10v-390l-10 -10h-80l-10 10v390l-10 10h-70l-10 10v70l10 10h70l10 10v40q0 63 41 96.5t99 33.5h80l10 -10v-70l-10 -10h-80q-40 0 -40 -40v-40l10 -10h290l10 -10
v-480z" />
    <glyph glyph-name="f_l" unicode="fl" horiz-adv-x="590" 
d="M530 10l-10 -10h-80l-10 10v390l-10 10h-190l-10 -10v-390l-10 -10h-80l-10 10v390l-10 10h-70l-10 10v70l10 10h70l10 10v40q0 63 41 96.5t99 33.5h80l10 -10v-70l-10 -10h-80q-40 0 -40 -40v-40l10 -10h190l10 10v180l10 10h80l10 -10v-680z" />
    <glyph glyph-name="f_f" unicode="ff" horiz-adv-x="680" 
d="M650 420l-10 -10h-100l-10 -10v-390l-10 -10h-80l-10 10v390l-10 10h-190l-10 -10v-390l-10 -10h-80l-10 10v390l-10 10h-70l-10 10v70l10 10h70l10 10v40q0 63 41 96.5t99 33.5h80l10 -10v-70l-10 -10h-80q-40 0 -40 -40v-40l10 -10h190l10 10v40q0 63 41 96.5t99 33.5
h80l10 -10v-70l-10 -10h-80q-40 0 -40 -40v-40l10 -10h100l10 -10v-70z" />
    <glyph glyph-name="f_f_i" unicode="ffi" horiz-adv-x="900" 
d="M840 10l-10 -10h-80l-10 10v390l-10 10h-190l-10 -10v-390l-10 -10h-80l-10 10v390l-10 10h-190l-10 -10v-390l-10 -10h-80l-10 10v390l-10 10h-70l-10 10v70l10 10h70l10 10v40q0 63 41 96.5t99 33.5h80l10 -10v-70l-10 -10h-80q-40 0 -40 -40v-40l10 -10h190l10 10v40
q0 63 41 96.5t99 33.5h80l10 -10v-70l-10 -10h-80q-40 0 -40 -40v-40l10 -10h290l10 -10v-480zM840 590l-10 -10h-80l-10 10v80l10 10h80l10 -10v-80z" />
    <glyph glyph-name="f_f_l" unicode="ffl" horiz-adv-x="900" 
d="M840 10l-10 -10h-80l-10 10v390l-10 10h-190l-10 -10v-390l-10 -10h-80l-10 10v390l-10 10h-190l-10 -10v-390l-10 -10h-80l-10 10v390l-10 10h-70l-10 10v70l10 10h70l10 10v40q0 63 41 96.5t99 33.5h80l10 -10v-70l-10 -10h-80q-40 0 -40 -40v-40l10 -10h190l10 10v40
q0 63 41 96.5t99 33.5h80l10 -10v-70l-10 -10h-80q-40 0 -40 -40v-40l10 -10h190l10 10v180l10 10h80l10 -10v-680z" />
    <glyph glyph-name=".notdef" horiz-adv-x="660" 
d="M580 10l-10 -10h-480l-10 10v680l10 10h480l10 -10v-680zM110 660v-620l10 -10h420l10 10v620l-10 10h-420z" />
    <glyph glyph-name=".null" horiz-adv-x="0" 
 />
    <glyph glyph-name=".null" horiz-adv-x="0" 
 />
    <glyph glyph-name="nonmarkingreturn" horiz-adv-x="333" 
 />
    <glyph glyph-name="CR" unicode="&#xd;" horiz-adv-x="0" 
 />
    <glyph glyph-name="space" unicode=" " horiz-adv-x="260" 
 />
    <glyph glyph-name="exclam" unicode="!" horiz-adv-x="360" 
d="M230 440l-20 -230l-10 -10h-40l-10 10l-20 230v250l10 10h80l10 -10v-250zM240 10l-10 -10h-100l-10 10v100l10 10h100l10 -10v-100z" />
    <glyph glyph-name="quotedbl" unicode="&#x22;" horiz-adv-x="460" 
d="M380 400l-10 -10h-80l-10 10v290l10 10h80l10 -10v-290zM180 400l-10 -10h-80l-10 10v290l10 10h80l10 -10v-290z" />
    <glyph glyph-name="numbersign" unicode="#" horiz-adv-x="650" 
d="M320 80l30 110l-10 10h-120l-10 -10l-50 -180l-10 -10h-50l-10 10v70l30 110l-10 10h-70l-10 10v60l10 10h100l10 10l30 120l-10 10h-80l-10 10v60l10 10h110l10 10l50 180l10 10h50l10 -10v-70l-30 -110l10 -10h120l10 10l50 180l10 10h50l10 -10v-70l-30 -110l10 -10
h70l10 -10v-60l-10 -10h-100l-10 -10l-30 -120l10 -10h80l10 -10v-60l-10 -10h-110l-10 -10l-50 -180l-10 -10h-50l-10 10v70zM250 280h120l10 10l30 120l-10 10h-120l-10 -10l-30 -120z" />
    <glyph glyph-name="dollar" unicode="$" horiz-adv-x="600" 
d="M340 -80l-10 -10h-60l-10 10v60l-10 10q-110 15 -160 72.5t-50 157.5l10 10h80l10 -10q0 -60 24 -96.5t86 -43.5l10 10v220l-10 10q-100 23 -150 71t-50 129q0 74 47 125t153 65l10 10v60l10 10h60l10 -10v-60l10 -10q88 -7 139 -66t51 -144l-10 -10h-80l-10 10
q0 47 -23 80t-67 40l-10 -10v-200l10 -10q210 -42 210 -210q0 -23 -5.5 -46t-20 -49t-37 -46.5t-60.5 -36.5t-87 -22l-10 -10v-60zM460 190q0 92 -110 110l-10 -10v-200l10 -10q52 8 81 36.5t29 73.5zM150 520q0 -83 100 -100l10 10v180l-10 10q-54 -7 -77 -35.5t-23 -64.5z
" />
    <glyph glyph-name="percent" unicode="%" horiz-adv-x="900" 
d="M210 330q-86 0 -128 51.5t-42 138.5t42 138.5t128 51.5t128 -51.5t42 -138.5t-42 -138.5t-128 -51.5zM130 520q0 -55 18.5 -82.5t61.5 -27.5t61.5 27.5t18.5 82.5t-18.5 82.5t-61.5 27.5t-61.5 -27.5t-18.5 -82.5zM680 620l-400 -610l-10 -10h-40l-10 10v70l400 610
l10 10h40l10 -10v-70zM690 -10q-86 0 -128 51.5t-42 138.5t42 138.5t128 51.5t128 -51.5t42 -138.5t-42 -138.5t-128 -51.5zM610 180q0 -55 18.5 -82.5t61.5 -27.5t61.5 27.5t18.5 82.5t-18.5 82.5t-61.5 27.5t-61.5 -27.5t-18.5 -82.5z" />
    <glyph glyph-name="ampersand" unicode="&#x26;" horiz-adv-x="750" 
d="M690 10l-10 -10h-40l-20 10l-60 60h-10q-49 -41 -100.5 -60.5t-129.5 -19.5q-116 0 -178 58t-62 152q0 76 36 121t104 79v10q-60 60 -60 140q0 61 45.5 110.5t134.5 49.5t129.5 -44t40.5 -106q0 -110 -120 -170v-10l150 -150h10q21 28 25.5 59t4.5 101l10 10h80l10 -10
q0 -51 -2 -77.5t-16 -68t-42 -84.5v-10l70 -70v-70zM410 550q0 70 -70 70q-41 0 -60.5 -21.5t-19.5 -48.5q0 -28 12.5 -46.5t47.5 -53.5h10q80 40 80 100zM480 140v10l-190 190h-10q-58 -29 -79 -60.5t-21 -79.5q0 -58 39 -89t101 -31q100 0 160 60z" />
    <glyph glyph-name="quotesingle" unicode="'" horiz-adv-x="260" 
d="M180 400l-10 -10h-80l-10 10v290l10 10h80l10 -10v-290z" />
    <glyph glyph-name="parenleft" unicode="(" horiz-adv-x="420" 
d="M340 -190l-10 -10h-20l-20 10l-86 86.5t-56 65t-39 57.5t-18 59t-10.5 74t-0.5 98t0.5 98t10.5 74t18 59t39 57.5t56 65l86 86.5l20 10h20l10 -10v-70l-64.5 -65t-42.5 -50.5t-30 -47.5t-14 -51t-8.5 -66.5t-0.5 -89.5t0.5 -89.5t8.5 -66.5t14 -51t30 -47.5t42.5 -50.5
l64.5 -65v-70z" />
    <glyph glyph-name="parenright" unicode=")" horiz-adv-x="420" 
d="M90 -200l-10 10v70l64.5 65t42.5 50.5t30 47.5t14 51t8.5 66.5t0.5 89.5t-0.5 89.5t-8.5 66.5t-14 51t-30 47.5t-42.5 50.5l-64.5 65v70l10 10h20l20 -10l67 -67t49.5 -53.5t38.5 -46.5t24 -41.5t18 -44t8 -49.5t5 -61.5v-76.5v-76.5t-5 -61.5t-8 -49.5t-18 -44
t-24 -41.5t-38.5 -46.5t-49.5 -53.5l-67 -67l-20 -10h-20z" />
    <glyph glyph-name="asterisk" unicode="*" horiz-adv-x="590" 
d="M300 270h-10l-10 10v160h-10l-110 -110h-10l-10 10v10l110 110v10h-160l-10 10v10l10 10h160v10l-110 110v10l10 10h10l110 -110h10v160l10 10h10l10 -10v-160h10l110 110h10l10 -10v-10l-110 -110v-10h160l10 -10v-10l-10 -10h-160v-10l110 -110v-10l-10 -10h-10
l-110 110h-10v-160z" />
    <glyph glyph-name="plus" unicode="+" horiz-adv-x="590" 
d="M530 220l-10 -10h-170l-10 -10v-170l-10 -10h-70l-10 10v170l-10 10h-170l-10 10v70l10 10h170l10 10v170l10 10h70l10 -10v-170l10 -10h170l10 -10v-70z" />
    <glyph glyph-name="comma" unicode="," horiz-adv-x="280" 
d="M200 0l-10 -30l-60 -80l-20 -10h-40v10l60 90v10l-10 10h-30l-10 10v100l10 10h100l10 -10v-110z" />
    <glyph glyph-name="hyphen" unicode="-" horiz-adv-x="410" 
d="M350 220l-10 -10h-270l-10 10v70l10 10h270l10 -10v-70z" />
    <glyph glyph-name="period" unicode="." horiz-adv-x="280" 
d="M200 10l-10 -10h-100l-10 10v100l10 10h100l10 -10v-100z" />
    <glyph glyph-name="slash" unicode="/" horiz-adv-x="510" 
d="M470 620l-360 -610l-10 -10h-50l-10 10v70l360 610l10 10h50l10 -10v-70z" />
    <glyph glyph-name="zero" unicode="0" 
d="M40 350q0 191 68 275.5t182 84.5t182 -84.5t68 -275.5t-68 -275.5t-182 -84.5t-182 84.5t-68 275.5zM140 350q0 -270 150 -270t150 270t-150 270t-150 -270z" />
    <glyph glyph-name="one" unicode="1" horiz-adv-x="380" 
d="M290 0h-80l-10 10v560h-10l-120 -120h-20l-10 10v80l150 150l20 10h80l10 -10v-680z" />
    <glyph glyph-name="two" unicode="2" horiz-adv-x="550" 
d="M510 10l-10 -10h-450l-10 10v80l10 20l200 160q79 63 109.5 109t30.5 111q0 58 -28.5 94t-91.5 36q-130 0 -130 -130l-10 -10h-80l-10 10q0 100 60 160t170 60q111 0 165.5 -62.5t54.5 -147.5q0 -91 -38.5 -152.5t-121.5 -127.5l-150 -120v-10h320l10 -10v-70z" />
    <glyph glyph-name="three" unicode="3" horiz-adv-x="550" 
d="M510 230q0 -111 -68 -175.5t-182 -64.5q-103 0 -166.5 57.5t-63.5 142.5l10 10h80l10 -10q0 -42 34 -76t96 -34q73 0 111.5 40.5t38.5 109.5q0 67 -34.5 103.5t-95.5 36.5q-22 0 -42 -7.5t-29 -14.5l-9 -8h-30l-10 10v70l190 180v10h-280l-10 10v70l10 10h390l10 -10v-80
l-10 -20l-150 -140v-10q6 1 20 1q70 0 125 -52t55 -159z" />
    <glyph glyph-name="four" unicode="4" horiz-adv-x="550" 
d="M470 10l-10 -10h-80l-10 10v180l-10 10h-330l-10 10v80l10 20l320 380l20 10h90l10 -10v-680zM370 300v270h-10l-230 -270v-10h230z" />
    <glyph glyph-name="five" unicode="5" 
d="M530 250q0 -132 -62 -196t-178 -64q-109 0 -165.5 53t-64.5 147l10 10h80l10 -10q9 -54 35.5 -82t94.5 -28q140 0 140 160q0 73 -29.5 111.5t-100.5 38.5q-28 0 -51.5 -8t-37.5 -20t-24 -24t-13 -20l-4 -8l-20 -10l-70 10l-10 10l20 370l10 10h390l10 -10v-70l-10 -10
h-300l-10 -10l-10 -180h10q2 2 5 6.5t15.5 14.5t27 18t39.5 14.5t53 6.5q106 0 158 -65.5t52 -164.5z" />
    <glyph glyph-name="six" unicode="6" horiz-adv-x="570" 
d="M50 340q0 201 66.5 285.5t193.5 84.5q91 0 147 -44t63 -126l-10 -10h-80l-10 10q-7 44 -36.5 62t-83.5 18q-140 0 -140 -210h10q5 6 14 14t45.5 22t80.5 14q104 0 162 -62t58 -168q0 -112 -62 -176t-168 -64q-121 0 -185.5 79t-64.5 271zM430 220q0 73 -29.5 111.5
t-100.5 38.5q-68 0 -104 -36t-36 -104q0 -72 37 -111t93 -39q68 0 104 36t36 104z" />
    <glyph glyph-name="seven" unicode="7" horiz-adv-x="510" 
d="M480 610l-290 -600l-10 -10h-50l-10 10v80l250 510v10h-320l-10 10v70l10 10h420l10 -10v-80z" />
    <glyph glyph-name="eight" unicode="8" horiz-adv-x="560" 
d="M520 200q0 -88 -63 -149t-177 -61t-177 61t-63 149q0 67 30.5 108.5t69.5 61.5v10q-80 53 -80 140q0 81 56.5 135.5t163.5 54.5t163.5 -54.5t56.5 -135.5q0 -87 -80 -140v-10q39 -20 69.5 -61.5t30.5 -108.5zM400 520q0 42 -29 71t-91 29t-91 -29t-29 -71q0 -48 31 -79
t89 -31t89 31t31 79zM420 200q0 57 -34.5 93.5t-105.5 36.5t-105.5 -36.5t-34.5 -93.5q0 -50 35 -85t105 -35t105 35t35 85z" />
    <glyph glyph-name="nine" unicode="9" horiz-adv-x="570" 
d="M520 370q0 -204 -64 -292t-196 -88q-84 0 -138.5 44.5t-61.5 125.5l10 10h80l10 -10q13 -80 110 -80q40 0 68.5 18t41.5 41t20.5 59t8.5 55t1 47h-10q-5 -6 -14 -14t-45.5 -22t-80.5 -14q-98 0 -159 63t-61 167q0 109 64.5 169.5t165.5 60.5q126 0 188 -76.5t62 -263.5z
M140 480q0 -67 34.5 -103.5t95.5 -36.5q68 0 104 36t36 104q0 72 -38 106t-102 34q-61 0 -95.5 -36.5t-34.5 -103.5z" />
    <glyph glyph-name="colon" unicode=":" horiz-adv-x="280" 
d="M200 390l-10 -10h-100l-10 10v100l10 10h100l10 -10v-100zM200 10l-10 -10h-100l-10 10v100l10 10h100l10 -10v-100z" />
    <glyph glyph-name="semicolon" unicode=";" horiz-adv-x="280" 
d="M200 390l-10 -10h-100l-10 10v100l10 10h100l10 -10v-100zM200 0l-10 -30l-60 -80l-20 -10h-40v10l60 90v10l-10 10h-30l-10 10v100l10 10h100l10 -10v-110z" />
    <glyph glyph-name="less" unicode="&#x3c;" 
d="M70 280l10 20l390 200h20l10 -10v-60l-10 -20l-310 -150v-20l310 -150l10 -20v-60l-10 -10h-20l-390 200l-10 20v60z" />
    <glyph glyph-name="equal" unicode="=" horiz-adv-x="600" 
d="M520 310l-10 -10h-420l-10 10v70l10 10h420l10 -10v-70zM520 120l-10 -10h-420l-10 10v70l10 10h420l10 -10v-70z" />
    <glyph glyph-name="greater" unicode="&#x3e;" 
d="M500 300l10 -20v-60l-10 -20l-390 -200h-20l-10 10v60l10 20l310 150v20l-310 150l-10 20v60l10 10h20z" />
    <glyph glyph-name="question" unicode="?" horiz-adv-x="600" 
d="M520 520q0 -69 -23.5 -107.5t-76.5 -82.5q-49 -41 -64.5 -64.5t-15.5 -65.5l-10 -10h-80l-10 10q0 60 17.5 96t62.5 74l55 47.5t30 41.5t15 61q0 42 -29 71t-91 29q-65 0 -92.5 -33t-27.5 -97l-10 -10h-80l-10 10q0 101 55.5 160.5t164.5 59.5q99 0 159.5 -50.5
t60.5 -139.5zM350 10l-10 -10h-100l-10 10v100l10 10h100l10 -10v-100z" />
    <glyph glyph-name="at" unicode="@" horiz-adv-x="920" 
d="M460 380q-48 0 -74 -29.5t-26 -100.5t26 -100.5t74 -29.5q47 0 68.5 29t21.5 101t-21.5 101t-68.5 29zM550 430v20l10 10h80l10 -10v-290q0 -35 12.5 -47.5t37.5 -12.5q36 0 48 35t12 115q0 66 -18 122.5t-53 101t-94 70.5t-135 26q-143 0 -221.5 -92t-78.5 -228
q0 -141 77.5 -230.5t222.5 -89.5q100 0 160 40h20l10 -10v-70q-67 -50 -190 -50q-179 0 -289.5 114.5t-110.5 295.5t110.5 295.5t289.5 114.5t289.5 -114.5t110.5 -295.5q0 -116 -46 -173t-124 -57q-70 0 -110 60h-10q-14 -14 -25 -22.5t-37 -18t-58 -9.5q-81 0 -135.5 56.5
t-54.5 163.5q0 106 53 163t127 57q31 0 56 -10t34 -20l10 -10h10z" />
    <glyph glyph-name="A" unicode="A" horiz-adv-x="630" 
d="M610 10l-10 -10h-60l-10 10l-60 150l-20 10h-270l-20 -10l-60 -150l-10 -10h-60l-10 10v70l240 610l10 10h90l10 -10l240 -610v-70zM430 270l-110 280h-10l-110 -280l10 -10h210z" />
    <glyph glyph-name="B" unicode="B" horiz-adv-x="640" 
d="M600 200q0 -105 -59 -152.5t-151 -47.5h-300l-10 10v680l10 10h280q91 0 150.5 -46t59.5 -144q0 -50 -25.5 -87t-64.5 -53v-10q49 -16 79.5 -56t30.5 -104zM480 510q0 58 -30 79t-100 21h-160l-10 -10v-180l10 -10h170q63 0 91.5 21.5t28.5 78.5zM500 200q0 67 -32 93.5
t-108 26.5h-170l-10 -10v-210l10 -10h190q61 0 90.5 25.5t29.5 84.5z" />
    <glyph glyph-name="C" unicode="C" horiz-adv-x="690" 
d="M370 -10q-154 0 -242 99.5t-88 260.5t88 260.5t242 99.5q116 0 190 -58.5t90 -151.5l-10 -10h-80l-10 10q-16 55 -62 87.5t-118 32.5q-110 0 -170 -73.5t-60 -196.5t60 -196.5t170 -73.5q143 0 180 130l10 10h80l10 -10q-16 -96 -87.5 -158t-192.5 -62z" />
    <glyph glyph-name="D" unicode="D" horiz-adv-x="670" 
d="M630 350q0 -169 -76 -259.5t-254 -90.5h-210l-10 10v680l10 10h210q178 0 254 -90.5t76 -259.5zM530 350q0 135 -52 197.5t-188 62.5h-100l-10 -10v-500l10 -10h100q136 0 188 62.5t52 197.5z" />
    <glyph glyph-name="E" unicode="E" horiz-adv-x="610" 
d="M550 10l-10 -10h-450l-10 10v680l10 10h450l10 -10v-70l-10 -10h-350l-10 -10v-190l10 -10h330l10 -10v-70l-10 -10h-330l-10 -10v-200l10 -10h350l10 -10v-70z" />
    <glyph glyph-name="F" unicode="F" horiz-adv-x="570" 
d="M530 620l-10 -10h-330l-10 -10v-200l10 -10h310l10 -10v-70l-10 -10h-310l-10 -10v-280l-10 -10h-80l-10 10v680l10 10h430l10 -10v-70z" />
    <glyph glyph-name="G" unicode="G" horiz-adv-x="720" 
d="M370 620q-110 0 -170 -73.5t-60 -196.5q0 -122 58.5 -196t161.5 -74q105 0 152.5 53t47.5 137l-10 10h-200l-10 10v70l10 10h300l10 -10v-350l-10 -10h-60l-10 10l-10 60h-10q-80 -80 -200 -80q-148 0 -234 100t-86 260q0 161 88 260.5t242 99.5q68 0 122 -18.5
t87.5 -49.5t53 -66.5t27.5 -75.5l-10 -10h-80l-10 10q-16 55 -63.5 87.5t-126.5 32.5z" />
    <glyph glyph-name="H" unicode="H" horiz-adv-x="710" 
d="M630 10l-10 -10h-80l-10 10v290l-10 10h-330l-10 -10v-290l-10 -10h-80l-10 10v680l10 10h80l10 -10v-280l10 -10h330l10 10v280l10 10h80l10 -10v-680z" />
    <glyph glyph-name="I" unicode="I" horiz-adv-x="260" 
d="M180 10l-10 -10h-80l-10 10v680l10 10h80l10 -10v-680z" />
    <glyph glyph-name="J" unicode="J" horiz-adv-x="510" 
d="M430 190q0 -89 -51.5 -144.5t-158.5 -55.5q-49 0 -86 13.5t-58 33t-34.5 46.5t-17.5 50t-4 47v20l10 10h80l10 -10v-20q0 -100 100 -100q54 0 82 26t28 84v500l10 10h80l10 -10v-500z" />
    <glyph glyph-name="K" unicode="K" horiz-adv-x="620" 
d="M600 10l-10 -10h-40l-20 10l-240 310h-10l-90 -90l-10 -20v-200l-10 -10h-80l-10 10v680l10 10h80l10 -10v-330h10l330 330l20 10h30l10 -10v-70l-220 -220v-10l240 -310v-70z" />
    <glyph glyph-name="L" unicode="L" horiz-adv-x="540" 
d="M530 10l-10 -10h-430l-10 10v680l10 10h80l10 -10v-590l10 -10h330l10 -10v-70z" />
    <glyph glyph-name="M" unicode="M" horiz-adv-x="890" 
d="M810 10l-10 -10h-80l-10 10v480h-10l-200 -480l-10 -10h-90l-10 10l-200 480h-10v-480l-10 -10h-80l-10 10v680l10 10h110l10 -10l230 -560h10l230 560l10 10h110l10 -10v-680z" />
    <glyph glyph-name="N" unicode="N" horiz-adv-x="730" 
d="M650 10l-10 -10h-90l-20 10l-340 520h-10v-520l-10 -10h-80l-10 10v680l10 10h90l20 -10l340 -520h10v520l10 10h80l10 -10v-680z" />
    <glyph glyph-name="O" unicode="O" horiz-adv-x="740" 
d="M40 350q0 161 88 260.5t242 99.5t242 -99.5t88 -260.5t-88 -260.5t-242 -99.5t-242 99.5t-88 260.5zM140 350q0 -123 60 -196.5t170 -73.5t170 73.5t60 196.5t-60 196.5t-170 73.5t-170 -73.5t-60 -196.5z" />
    <glyph glyph-name="P" unicode="P" horiz-adv-x="650" 
d="M630 500q0 -100 -63.5 -150t-166.5 -50h-210l-10 -10v-280l-10 -10h-80l-10 10v680l10 10h310q109 0 169.5 -49t60.5 -151zM530 500q0 59 -31 84.5t-99 25.5h-210l-10 -10v-200l10 -10h210q68 0 99 25.5t31 84.5z" />
    <glyph glyph-name="Q" unicode="Q" horiz-adv-x="740" 
d="M370 -10q-154 0 -242 99.5t-88 260.5t88 260.5t242 99.5t242 -99.5t88 -260.5q0 -79 -14.5 -131t-45.5 -99v-10l30 -30v-70l-10 -10h-50l-40 40h-10q-83 -50 -190 -50zM370 80q75 0 120 30v10l-70 70l-20 10h-80l-10 10v60l10 10h140l20 -10l80 -80h10q30 60 30 160
q0 123 -60 196.5t-170 73.5t-170 -73.5t-60 -196.5t60 -196.5t170 -73.5z" />
    <glyph glyph-name="R" unicode="R" horiz-adv-x="670" 
d="M530 500q0 59 -31 84.5t-99 25.5h-210l-10 -10v-200l10 -10h210q68 0 99 25.5t31 84.5zM630 500q0 -80 -40 -127t-110 -63v-10l140 -220v-70l-10 -10h-40l-20 10l-180 280l-20 10h-160l-10 -10v-280l-10 -10h-80l-10 10v680l10 10h310q109 0 169.5 -49t60.5 -151z" />
    <glyph glyph-name="S" unicode="S" horiz-adv-x="630" 
d="M590 190q0 -88 -67.5 -144t-202.5 -56q-130 0 -205 59.5t-75 170.5l10 10h80l10 -10q0 -140 190 -140q73 0 116.5 26.5t43.5 83.5q0 64 -43.5 89t-156.5 41q-230 33 -230 200q0 77 62.5 133.5t187.5 56.5q119 0 189.5 -51.5t70.5 -158.5l-10 -10h-80l-10 10q0 62 -38 91
t-132 29q-66 0 -103 -27t-37 -73q0 -58 40 -81t150 -39q116 -17 178 -64.5t62 -145.5z" />
    <glyph glyph-name="T" unicode="T" horiz-adv-x="600" 
d="M580 620l-10 -10h-210l-10 -10v-590l-10 -10h-80l-10 10v590l-10 10h-210l-10 10v70l10 10h540l10 -10v-70z" />
    <glyph glyph-name="U" unicode="U" horiz-adv-x="700" 
d="M620 690v-440q0 -121 -71.5 -190.5t-198.5 -69.5t-198.5 69.5t-71.5 190.5v440l10 10h80l10 -10v-440q0 -79 42 -124.5t128 -45.5t128 45.5t42 124.5v440l10 10h80z" />
    <glyph glyph-name="V" unicode="V" horiz-adv-x="630" 
d="M600 620l-230 -610l-10 -10h-90l-10 10l-230 610v70l10 10h60l10 -10l200 -550h10l200 550l10 10h60l10 -10v-70z" />
    <glyph glyph-name="W" unicode="W" horiz-adv-x="930" 
d="M890 620l-160 -610l-10 -10h-90l-10 10l-150 530h-10l-150 -530l-10 -10h-90l-10 10l-160 610v70l10 10h60l10 -10l130 -510h10l150 510l10 10h90l10 -10l150 -510h10l130 510l10 10h60l10 -10v-70z" />
    <glyph glyph-name="X" unicode="X" horiz-adv-x="650" 
d="M610 10l-10 -10h-40l-20 10l-210 280h-10l-210 -280l-20 -10h-40l-10 10v70l220 280v10l-210 250v70l10 10h40l20 -10l200 -250h10l200 250l20 10h40l10 -10v-70l-210 -250v-10l220 -280v-70z" />
    <glyph glyph-name="Y" unicode="Y" 
d="M550 620l-210 -340v-270l-10 -10h-80l-10 10v270l-210 340v70l10 10h40l20 -10l180 -300h20l180 300l20 10h40l10 -10v-70z" />
    <glyph glyph-name="Z" unicode="Z" horiz-adv-x="600" 
d="M550 10l-10 -10h-480l-10 10v80l10 20l350 490v10h-340l-10 10v70l10 10h450l10 -10v-80l-10 -20l-350 -490v-10h370l10 -10v-70z" />
    <glyph glyph-name="bracketleft" unicode="[" horiz-adv-x="370" 
d="M290 -190l-10 -10h-190l-10 10v880l10 10h190l10 -10v-70l-10 -10h-90l-10 -10v-700l10 -10h90l10 -10v-70z" />
    <glyph glyph-name="backslash" unicode="\" horiz-adv-x="510" 
d="M400 10l-360 610v70l10 10h50l10 -10l360 -610v-70l-10 -10h-50z" />
    <glyph glyph-name="bracketright" unicode="]" horiz-adv-x="370" 
d="M90 -200l-10 10v70l10 10h90l10 10v700l-10 10h-90l-10 10v70l10 10h190l10 -10v-880l-10 -10h-190z" />
    <glyph glyph-name="asciicircum" unicode="^" 
d="M510 240l-10 -10h-40l-20 10l-140 330h-20l-140 -330l-20 -10h-40l-10 10v70l170 380l10 10h80l10 -10l170 -380v-70z" />
    <glyph glyph-name="underscore" unicode="_" 
d="M540 -80l-10 -10h-480l-10 10v70l10 10h480l10 -10v-70z" />
    <glyph glyph-name="grave" unicode="`" horiz-adv-x="500" 
d="M290 570l-10 -10h-50l-20 10l-110 100v20l10 10h70l20 -10l90 -100v-20z" />
    <glyph glyph-name="a" unicode="a" horiz-adv-x="500" 
d="M450 10l-10 -10h-70l-10 10l-10 40h-10q-2 -2 -5 -6.5t-15.5 -14.5t-27 -18t-39.5 -14.5t-53 -6.5q-82 0 -126 42t-44 118q0 80 59 120t161 40q22 0 44.5 -2.5t33.5 -5.5l12 -2l10 10v20q0 51 -23 70.5t-77 19.5q-100 0 -100 -60l-10 -10h-80l-10 10q0 61 48.5 105.5
t151.5 44.5q110 0 155 -52t45 -168v-280zM350 180v30l-10 10q-30 10 -80 10q-130 0 -130 -80q0 -70 90 -70q60 0 95 27.5t35 72.5z" />
    <glyph glyph-name="b" unicode="b" horiz-adv-x="550" 
d="M520 250q0 -113 -61.5 -186.5t-158.5 -73.5q-40 0 -72.5 15t-45.5 30l-12 15h-10l-10 -40l-10 -10h-70l-10 10v680l10 10h80l10 -10v-240h10q2 2 5 6.5t15 14.5t25.5 18t36.5 14.5t48 6.5q98 0 159 -70.5t61 -189.5zM420 250q0 82 -34.5 126t-95.5 44q-130 0 -130 -170
t130 -170q61 0 95.5 44t34.5 126z" />
    <glyph glyph-name="c" unicode="c" horiz-adv-x="520" 
d="M130 250q0 -82 36 -126t104 -44q100 0 120 80l10 10h80l10 -10q-8 -73 -64.5 -121.5t-155.5 -48.5q-112 0 -176 70t-64 190t64 190t176 70q99 0 155.5 -48.5t64.5 -121.5l-10 -10h-80l-10 10q-20 80 -120 80q-68 0 -104 -44t-36 -126z" />
    <glyph glyph-name="d" unicode="d" horiz-adv-x="550" 
d="M490 10l-10 -10h-70l-10 10l-10 40h-10q-2 -2 -5 -6.5t-15 -14.5t-25.5 -18t-36.5 -14.5t-48 -6.5q-103 0 -161.5 72.5t-58.5 187.5t58.5 187.5t161.5 72.5q40 0 72.5 -15t45.5 -30l12 -15h10v240l10 10h80l10 -10v-680zM390 250q0 170 -130 170q-61 0 -95.5 -44
t-34.5 -126t34.5 -126t95.5 -44q130 0 130 170z" />
    <glyph glyph-name="e" unicode="e" horiz-adv-x="520" 
d="M370 290l10 10q0 16 -4 32.5t-14.5 38t-37 35.5t-64.5 14t-64.5 -14t-37 -35.5t-14.5 -38t-4 -32.5l10 -10h220zM270 -10q-116 0 -178 71.5t-62 188.5q0 113 58 186.5t172 73.5t172 -73.5t58 -186.5v-30l-10 -10h-330l-10 -10q0 -9 2 -20.5t9.5 -30t20.5 -33t38.5 -25.5
t59.5 -11q76 0 100 60l10 10h80l10 -10q-8 -64 -61 -107t-139 -43z" />
    <glyph glyph-name="f" unicode="f" horiz-adv-x="370" 
d="M340 420l-10 -10h-100l-10 -10v-390l-10 -10h-80l-10 10v390l-10 10h-70l-10 10v70l10 10h70l10 10v40q0 63 41 96.5t99 33.5h80l10 -10v-70l-10 -10h-80q-40 0 -40 -40v-40l10 -10h100l10 -10v-70z" />
    <glyph glyph-name="g" unicode="g" horiz-adv-x="550" 
d="M260 -120q130 0 130 170h-10q-2 -2 -5 -6.5t-15 -14.5t-25.5 -18t-36.5 -14.5t-48 -6.5q-103 0 -161.5 72.5t-58.5 187.5t58.5 187.5t161.5 72.5q40 0 72.5 -15t45.5 -30l12 -15h10l10 40l10 10h70l10 -10v-430q0 -140 -65 -205t-165 -65q-87 0 -139.5 39t-60.5 101
l10 10h80l10 -10q14 -29 37 -39.5t63 -10.5zM390 250q0 170 -130 170q-61 0 -95.5 -44t-34.5 -126t34.5 -126t95.5 -44q130 0 130 170z" />
    <glyph glyph-name="h" unicode="h" horiz-adv-x="550" 
d="M490 10l-10 -10h-80l-10 10v290q0 120 -100 120q-64 0 -97 -37t-33 -123v-250l-10 -10h-80l-10 10v680l10 10h80l10 -10v-240h10q2 2 5 6.5t15 14.5t25.5 18t36.5 14.5t48 6.5q190 0 190 -210v-290z" />
    <glyph glyph-name="i" unicode="i" horiz-adv-x="220" 
d="M160 590l-10 -10h-80l-10 10v80l10 10h80l10 -10v-80zM160 10l-10 -10h-80l-10 10v480l10 10h80l10 -10v-480z" />
    <glyph glyph-name="j" unicode="j" horiz-adv-x="220" 
d="M160 590l-10 -10h-80l-10 10v80l10 10h80l10 -10v-80zM160 490v-540q0 -63 -41 -96.5t-99 -33.5h-50l-10 10v70l10 10h50q40 0 40 40v540l10 10h80z" />
    <glyph glyph-name="k" unicode="k" horiz-adv-x="500" 
d="M470 10l-10 -10h-40l-20 10l-150 190h-10l-70 -70l-10 -20v-100l-10 -10h-80l-10 10v680l10 10h80l10 -10v-430h10l230 230l20 10h30l10 -10v-70l-140 -140v-10l150 -190v-70z" />
    <glyph glyph-name="l" unicode="l" horiz-adv-x="220" 
d="M160 10l-10 -10h-80l-10 10v680l10 10h80l10 -10v-680z" />
    <glyph glyph-name="m" unicode="m" horiz-adv-x="810" 
d="M760 10l-10 -10h-80l-10 10v300q0 54 -17.5 82t-72.5 28q-52 0 -81 -35t-29 -95v-280l-10 -10h-80l-10 10v300q0 54 -17.5 82t-72.5 28q-45 0 -77.5 -31t-32.5 -99v-280l-10 -10h-80l-10 10v480l10 10h70l10 -10l10 -40h10q40 60 130 60q37 0 65 -12.5t40 -25t25 -32.5
h10q52 70 150 70q97 0 133.5 -53t36.5 -147v-300z" />
    <glyph glyph-name="n" unicode="n" horiz-adv-x="540" 
d="M490 10l-10 -10h-80l-10 10v290q0 120 -100 120q-68 0 -99 -40t-31 -130v-240l-10 -10h-80l-10 10v480l10 10h70l10 -10l10 -40h10q2 2 5 6.5t15 14.5t25.5 18t36.5 14.5t48 6.5q100 0 145 -56.5t45 -153.5v-290z" />
    <glyph glyph-name="o" unicode="o" horiz-adv-x="540" 
d="M30 250q0 120 64 190t176 70t176 -70t64 -190t-64 -190t-176 -70t-176 70t-64 190zM130 250q0 -82 36 -126t104 -44t104 44t36 126t-36 126t-104 44t-104 -44t-36 -126z" />
    <glyph glyph-name="p" unicode="p" horiz-adv-x="550" 
d="M520 250q0 -115 -58.5 -187.5t-161.5 -72.5q-40 0 -72.5 15t-45.5 30l-12 15h-10v-240l-10 -10h-80l-10 10v680l10 10h70l10 -10l10 -40h10q2 2 5 6.5t15 14.5t25.5 18t36.5 14.5t48 6.5q103 0 161.5 -72.5t58.5 -187.5zM420 250q0 82 -34.5 126t-95.5 44
q-130 0 -130 -170t130 -170q61 0 95.5 44t34.5 126z" />
    <glyph glyph-name="q" unicode="q" horiz-adv-x="550" 
d="M490 -190l-10 -10h-80l-10 10v240h-10q-2 -2 -5 -6.5t-15 -14.5t-25.5 -18t-36.5 -14.5t-48 -6.5q-103 0 -161.5 72.5t-58.5 187.5t58.5 187.5t161.5 72.5q40 0 72.5 -15t45.5 -30l12 -15h10l10 40l10 10h70l10 -10v-680zM390 250q0 170 -130 170q-61 0 -95.5 -44
t-34.5 -126t34.5 -126t95.5 -44q130 0 130 170z" />
    <glyph glyph-name="r" unicode="r" horiz-adv-x="370" 
d="M350 420l-10 -10h-50q-65 0 -97.5 -32.5t-32.5 -117.5v-250l-10 -10h-80l-10 10v480l10 10h70l10 -10l10 -40h10q26 26 53.5 38t76.5 12h40l10 -10v-70z" />
    <glyph glyph-name="s" unicode="s" horiz-adv-x="460" 
d="M430 140q0 -65 -50.5 -107.5t-149.5 -42.5q-97 0 -148.5 43.5t-51.5 126.5l10 10h80l10 -10q0 -80 100 -80t100 60q0 36 -25 50t-105 30q-79 16 -119.5 50.5t-40.5 99.5q0 59 46 99.5t144 40.5q86 0 138 -38.5t52 -111.5l-10 -10h-80l-10 10q0 60 -90 60t-90 -50
q0 -35 28.5 -49t111.5 -31q78 -16 114 -50t36 -100z" />
    <glyph glyph-name="t" unicode="t" horiz-adv-x="380" 
d="M340 10l-10 -10h-80q-58 0 -99 33.5t-41 96.5v270l-10 10h-70l-10 10v70l10 10h70l10 10v90l10 10h80l10 -10v-90l10 -10h110l10 -10v-70l-10 -10h-110l-10 -10v-270q0 -40 40 -40h80l10 -10v-70z" />
    <glyph glyph-name="u" unicode="u" horiz-adv-x="530" 
d="M470 10l-10 -10h-70l-10 10l-10 40h-10q-2 -2 -5 -6.5t-14 -14.5t-24 -18t-34 -14.5t-43 -6.5q-98 0 -144 59.5t-46 150.5v290l10 10h80l10 -10v-290q0 -120 100 -120q55 0 87.5 42t32.5 128v240l10 10h80l10 -10v-480z" />
    <glyph glyph-name="v" unicode="v" horiz-adv-x="510" 
d="M480 420l-170 -410l-10 -10h-90l-10 10l-170 410v70l10 10h60l10 -10l140 -350h10l140 350l10 10h60l10 -10v-70z" />
    <glyph glyph-name="w" unicode="w" horiz-adv-x="750" 
d="M710 420l-120 -410l-10 -10h-90l-10 10l-100 350h-10l-100 -350l-10 -10h-90l-10 10l-120 410v70l10 10h60l10 -10l90 -340h10l100 340l10 10h90l10 -10l100 -340h10l90 340l10 10h60l10 -10v-70z" />
    <glyph glyph-name="x" unicode="x" horiz-adv-x="490" 
d="M460 10l-10 -10h-30l-20 10l-150 170h-10l-150 -170l-20 -10h-30l-10 10v70l150 170v10l-140 160v70l10 10h30l20 -10l140 -160h10l140 160l20 10h30l10 -10v-70l-140 -160v-10l150 -170v-70z" />
    <glyph glyph-name="y" unicode="y" horiz-adv-x="510" 
d="M480 420l-160 -400q-45 -112 -87 -146t-133 -34h-20l-10 10v70l10 10h20q40 0 63 12t37 48v10l-170 420v70l10 10h60l10 -10l140 -370h10l140 370l10 10h60l10 -10v-70z" />
    <glyph glyph-name="z" unicode="z" horiz-adv-x="500" 
d="M460 10l-10 -10h-400l-10 10v80l10 20l270 290v10h-260l-10 10v70l10 10h380l10 -10v-80l-10 -20l-270 -290v-10h280l10 -10v-70z" />
    <glyph glyph-name="braceleft" unicode="{" horiz-adv-x="440" 
d="M160 -50v180q0 44 -16 62t-54 18l-10 10v60l10 10q38 0 54 18t16 62v180q0 72 43 111t107 39h40l10 -10v-70l-10 -10h-40q-50 0 -50 -60v-190q0 -38 -14 -65t-36 -35v-20q22 -8 36 -35t14 -65v-190q0 -60 50 -60h40l10 -10v-70l-10 -10h-40q-64 0 -107 39t-43 111z" />
    <glyph glyph-name="bar" unicode="|" horiz-adv-x="340" 
d="M220 -190l-10 -10h-80l-10 10v880l10 10h80l10 -10v-880z" />
    <glyph glyph-name="braceright" unicode="}" horiz-adv-x="440" 
d="M280 130v-180q0 -72 -43 -111t-107 -39h-40l-10 10v70l10 10h40q50 0 50 60v190q0 38 14 65t36 35v20q-22 8 -36 35t-14 65v190q0 60 -50 60h-40l-10 10v70l10 10h40q64 0 107 -39t43 -111v-180q0 -44 16 -62t54 -18l10 -10v-60l-10 -10q-38 0 -54 -18t-16 -62z" />
    <glyph glyph-name="asciitilde" unicode="~" horiz-adv-x="620" 
d="M270 210q-19 19 -28.5 27.5t-23.5 15.5t-28 7q-28 0 -39 -20t-11 -60l-10 -10h-60l-10 10q0 81 36 130.5t114 49.5q32 0 61.5 -13t43.5 -24.5t35 -32.5q19 -19 28.5 -27.5t23.5 -15.5t28 -7q28 0 39 20t11 60l10 10h60l10 -10q0 -81 -36 -130.5t-114 -49.5
q-32 0 -61.5 13t-43.5 24.5t-35 32.5z" />
    <glyph glyph-name="uni00A0" unicode="&#xa0;" horiz-adv-x="260" 
 />
    <glyph glyph-name="exclamdown" unicode="&#xa1;" horiz-adv-x="360" 
d="M130 100l20 190l10 10h40l10 -10l20 -190v-290l-10 -10h-80l-10 10v290zM120 490l10 10h100l10 -10v-100l-10 -10h-100l-10 10v100z" />
    <glyph glyph-name="cent" unicode="&#xa2;" horiz-adv-x="520" 
d="M130 250q0 -79 28.5 -119t61.5 -51l10 10v320l-10 10q-33 -11 -61.5 -51t-28.5 -119zM310 410v-320l10 -10q53 13 70 80l10 10h80l10 -10q-7 -75 -57.5 -118t-112.5 -52l-10 -10v-40l-10 -10h-60l-10 10v40l-10 10q-30 4 -60 19t-61 43t-50 79.5t-19 118.5t19 118.5
t50 79.5t61 43t60 19l10 10v40l10 10h60l10 -10v-40l10 -10q62 -9 112.5 -52t57.5 -118l-10 -10h-80l-10 10q-17 67 -70 80z" />
    <glyph glyph-name="sterling" unicode="&#xa3;" horiz-adv-x="600" 
d="M440 290l-10 -10h-200l-10 -10v-80q0 -70 -40 -90v-10h380l10 -10v-70l-10 -10h-520l-10 10v70l10 10h10q70 0 70 90v90l-10 10h-60l-10 10v60l10 10h60l10 10v120q0 101 54 160.5t156 59.5q200 0 200 -210l-10 -10h-80l-10 10q0 63 -21 91.5t-79 28.5q-110 0 -110 -130
v-120l10 -10h200l10 -10v-60z" />
    <glyph glyph-name="currency" unicode="&#xa4;" horiz-adv-x="640" 
d="M60 250q0 80 40 140v10l-60 60v10l60 60h10l60 -60h10q60 40 140 40t140 -40h10l60 60h10l60 -60v-10l-60 -60v-10q40 -60 40 -140t-40 -140v-10l60 -60v-10l-60 -60h-10l-60 60h-10q-60 -40 -140 -40t-140 40h-10l-60 -60h-10l-60 60v10l60 60v10q-40 60 -40 140z
M160 250q0 -70 44 -120t116 -50t116 50t44 120t-44 120t-116 50t-116 -50t-44 -120z" />
    <glyph glyph-name="yen" unicode="&#xa5;" horiz-adv-x="560" 
d="M330 120v-110l-10 -10h-80l-10 10v110l-10 10h-110l-10 10v60l10 10h110l10 10v20l-20 40l-20 10h-110l-10 10v60l10 10h80v10l-120 240v70l10 10h50l20 -10l150 -320h20l150 320l20 10h50l10 -10v-70l-120 -240v-10h80l10 -10v-60l-10 -10h-110l-20 -10l-20 -40v-20
l10 -10h110l10 -10v-60l-10 -10h-110z" />
    <glyph glyph-name="brokenbar" unicode="&#xa6;" horiz-adv-x="340" 
d="M220 420l-10 -10h-80l-10 10v270l10 10h80l10 -10v-270zM220 10l-10 -10h-80l-10 10v270l10 10h80l10 -10v-270z" />
    <glyph glyph-name="section" unicode="&#xa7;" horiz-adv-x="640" 
d="M140 300q0 -31 13 -54t33 -36.5t51 -24.5t59.5 -17.5t67 -16.5t66.5 -21h10q2 0 6.5 1.5t14.5 7.5t18 14.5t14.5 26.5t6.5 40q0 29 -15.5 50t-47.5 36t-63 24.5t-81.5 23.5t-82.5 26h-10q-2 0 -6.5 -1.5t-14.5 -7t-18 -13t-14.5 -23t-6.5 -35.5zM520 90v-10
q50 -50 50 -110q0 -180 -240 -180q-260 0 -260 210l10 10h80l10 -10q0 -64 33.5 -92t126.5 -28q74 0 107 22t33 68q0 32 -32 54t-79.5 33t-103.5 28t-103.5 37.5t-79.5 63.5t-32 104q0 28 8 51.5t20 37.5t24 24t20 13l8 4v10q-50 50 -50 110q0 78 63.5 124t186.5 46
q250 0 250 -210l-10 -10h-80l-10 10q0 64 -33.5 92t-126.5 28q-78 0 -109 -20t-31 -60q0 -32 32 -55t79.5 -34.5t103.5 -29.5t103.5 -38t79.5 -62t32 -101q0 -28 -8 -51.5t-20 -37.5t-24 -24t-20 -13z" />
    <glyph glyph-name="dieresis" unicode="&#xa8;" horiz-adv-x="500" 
d="M390 590l-10 -10h-80l-10 10v80l10 10h80l10 -10v-80zM210 590l-10 -10h-80l-10 10v80l10 10h80l10 -10v-80z" />
    <glyph glyph-name="copyright" unicode="&#xa9;" horiz-adv-x="840" 
d="M420 560q71 0 122 -34t58 -116l-10 -10h-60l-10 10q-7 48 -31.5 64t-68.5 16q-110 0 -110 -140t110 -140q44 0 68.5 16t31.5 64l10 10h60l10 -10q-7 -82 -58 -116t-122 -34q-88 0 -139 51t-51 159t51 159t139 51zM140 350q0 -120 80 -200t200 -80t200 80t80 200t-80 200
t-200 80t-200 -80t-80 -200zM60 350q0 150 105 255t255 105t255 -105t105 -255t-105 -255t-255 -105t-255 105t-105 255z" />
    <glyph glyph-name="ordfeminine" unicode="&#xaa;" horiz-adv-x="560" 
d="M480 350l-10 -10h-30q-40 0 -70 30h-10q-40 -40 -110 -40q-76 0 -123 50.5t-47 139.5q0 92 49 141t121 49q60 0 90 -30h10v10l10 10h70l10 -10v-240q0 -30 20 -30h10l10 -10v-60zM170 520q0 -110 90 -110t90 110t-90 110t-90 -110zM470 270l-10 -10h-350l-10 10v10l10 10
h350l10 -10v-10z" />
    <glyph glyph-name="guillemotleft" unicode="&#xab;" horiz-adv-x="700" 
d="M360 40l-10 -10h-80l-20 10l-160 160l-10 20v60l10 20l160 160l20 10h80l10 -10v-30l-180 -170v-20l180 -170v-30zM620 40l-10 -10h-80l-20 10l-160 160l-10 20v60l10 20l160 160l20 10h80l10 -10v-30l-180 -170v-20l180 -170v-30z" />
    <glyph glyph-name="logicalnot" unicode="&#xac;" 
d="M500 100l-10 -10h-70l-10 10v100l-10 10h-330l-10 10v70l10 10h420l10 -10v-190z" />
    <glyph glyph-name="uni00AD" unicode="&#xad;" horiz-adv-x="410" 
d="M350 220l-10 -10h-270l-10 10v70l10 10h270l10 -10v-70z" />
    <glyph glyph-name="registered" unicode="&#xae;" horiz-adv-x="840" 
d="M520 430q0 22 -14 36t-36 14h-120l-10 -10v-80l10 -10h120q22 0 36 14t14 36zM520 310l80 -100v-50l-10 -10h-30l-20 10l-110 140l-20 10h-60l-10 -10v-140l-10 -10h-60l-10 10v380l10 10h200q61 0 95.5 -30.5t34.5 -89.5q0 -83 -80 -110v-10zM140 350q0 -120 80 -200
t200 -80t200 80t80 200t-80 200t-200 80t-200 -80t-80 -200zM60 350q0 150 105 255t255 105t255 -105t105 -255t-105 -255t-255 -105t-255 105t-105 255z" />
    <glyph glyph-name="macron" unicode="&#xaf;" horiz-adv-x="500" 
d="M410 590l-10 -10h-300l-10 10v60l10 10h300l10 -10v-60z" />
    <glyph glyph-name="degree" unicode="&#xb0;" 
d="M80 500q0 90 60 150t150 60t150 -60t60 -150t-60 -150t-150 -60t-150 60t-60 150zM170 500q0 -59 33.5 -94.5t86.5 -35.5t86.5 35.5t33.5 94.5t-33.5 94.5t-86.5 35.5t-86.5 -35.5t-33.5 -94.5z" />
    <glyph glyph-name="plusminus" unicode="&#xb1;" 
d="M520 290l-10 -10h-160l-10 -10v-110l-10 -10h-70l-10 10v110l-10 10h-160l-10 10v70l10 10h160l10 10v110l10 10h70l10 -10v-110l10 -10h160l10 -10v-70zM520 10l-10 -10h-430l-10 10v70l10 10h430l10 -10v-70z" />
    <glyph glyph-name="twosuperior" unicode="&#xb2;" horiz-adv-x="360" 
d="M320 350l-10 -10h-250l-10 10v60l10 20l90 60q44 29 57 49t13 51q0 40 -40 40t-40 -40l-10 -10h-70l-10 10q0 55 32.5 87.5t97.5 32.5t97.5 -32.5t32.5 -87.5q0 -48 -17.5 -76t-52.5 -54l-40 -30v-10h110l10 -10v-60z" />
    <glyph glyph-name="threesuperior" unicode="&#xb3;" horiz-adv-x="360" 
d="M140 490l-10 10v50l60 60v10h-120l-10 10v60l10 10h220l10 -10v-60l-10 -20l-50 -50v-10q3 0 8.5 -0.5t19.5 -5.5t24.5 -13.5t19 -27t8.5 -43.5q0 -55 -37.5 -92.5t-102.5 -37.5q-66 0 -103 33t-37 87l10 10h70l10 -10q0 -40 50 -40q22 0 36 14t14 36q0 16 -10.5 27
t-25.5 11q-13 0 -24 -8h-30z" />
    <glyph glyph-name="acute" unicode="&#xb4;" horiz-adv-x="500" 
d="M340 670l-110 -100l-20 -10h-50l-10 10v20l90 100l20 10h70l10 -10v-20z" />
    <glyph glyph-name="mu" unicode="&#xb5;" 
d="M400 30h-10q-40 -40 -100 -40q-27 0 -52 10t-36 20l-12 10h-10v-220l-10 -10h-80l-10 10v680l10 10h80l10 -10v-260q0 -150 110 -150t110 150v260l10 10h80l10 -10v-480l-10 -10h-70l-10 10z" />
    <glyph glyph-name="paragraph" unicode="&#xb6;" horiz-adv-x="710" 
d="M380 -190l-10 -10h-80l-10 10v480l-10 10q-95 0 -152.5 50t-57.5 150q0 101 59 150.5t161 49.5h370l10 -10v-70l-10 -10h-60l-10 -10v-790l-10 -10h-80l-10 10v790l-10 10h-80l-10 -10v-790z" />
    <glyph glyph-name="periodcentered" unicode="&#xb7;" horiz-adv-x="280" 
d="M200 210l-10 -10h-100l-10 10v100l10 10h100l10 -10v-100z" />
    <glyph glyph-name="cedilla" unicode="&#xb8;" horiz-adv-x="500" 
d="M210 -100h-10l-10 10v10l80 80h40l-70 -70h10q20 10 40 10q25 0 42.5 -17.5t17.5 -52.5q0 -37 -27.5 -58.5t-72.5 -21.5q-30 0 -48.5 8.5t-41.5 31.5v10l10 10h10q14 -14 28.5 -17t41.5 -3q50 0 50 40t-50 40q-20 0 -40 -10z" />
    <glyph glyph-name="onesuperior" unicode="&#xb9;" horiz-adv-x="360" 
d="M50 350v60l10 10h80l10 10v150h-10l-40 -40h-30l-10 10v60l80 80l20 10h70l10 -10v-260l10 -10h60l10 -10v-60l-10 -10h-250z" />
    <glyph glyph-name="ordmasculine" unicode="&#xba;" horiz-adv-x="520" 
d="M260 330q-87 0 -133.5 52t-46.5 138t46.5 138t133.5 52t133.5 -52t46.5 -138t-46.5 -138t-133.5 -52zM170 520q0 -110 90 -110t90 110t-90 110t-90 -110zM420 270l-10 -10h-300l-10 10v10l10 10h300l10 -10v-10z" />
    <glyph glyph-name="guillemotright" unicode="&#xbb;" horiz-adv-x="700" 
d="M350 30l-10 10v30l180 170v20l-180 170v30l10 10h80l20 -10l160 -160l10 -20v-60l-10 -20l-160 -160l-20 -10h-80zM90 30l-10 10v30l180 170v20l-180 170v30l10 10h80l20 -10l160 -160l10 -20v-60l-10 -20l-160 -160l-20 -10h-80z" />
    <glyph glyph-name="onequarter" unicode="&#xbc;" horiz-adv-x="860" 
d="M760 10l-10 -10h-70l-10 10v50l-10 10h-180l-10 10v80l10 20l170 170l20 10h80l10 -10v-340zM670 160v90h-10l-90 -90v-10h90zM50 350v60l10 10h80l10 10v150h-10l-40 -40h-30l-10 10v60l80 80l20 10h70l10 -10v-260l10 -10h60l10 -10v-60l-10 -10h-250zM660 620
l-400 -610l-10 -10h-40l-10 10v70l400 610l10 10h40l10 -10v-70z" />
    <glyph glyph-name="onehalf" unicode="&#xbd;" horiz-adv-x="860" 
d="M800 10l-10 -10h-250l-10 10v60l10 20l90 60q44 29 57 49t13 51q0 40 -40 40t-40 -40l-10 -10h-70l-10 10q0 55 32.5 87.5t97.5 32.5t97.5 -32.5t32.5 -87.5q0 -48 -17.5 -76t-52.5 -54l-40 -30v-10h110l10 -10v-60zM50 350v60l10 10h80l10 10v150h-10l-40 -40h-30
l-10 10v60l80 80l20 10h70l10 -10v-260l10 -10h60l10 -10v-60l-10 -10h-250zM660 620l-400 -610l-10 -10h-40l-10 10v70l400 610l10 10h40l10 -10v-70z" />
    <glyph glyph-name="threequarters" unicode="&#xbe;" horiz-adv-x="860" 
d="M660 620l-400 -610l-10 -10h-40l-10 10v70l400 610l10 10h40l10 -10v-70zM760 10l-10 -10h-70l-10 10v50l-10 10h-180l-10 10v80l10 20l170 170l20 10h80l10 -10v-340zM670 160v90h-10l-90 -90v-10h90zM160 490l-10 10v50l60 60v10h-120l-10 10v60l10 10h220l10 -10v-60
l-10 -20l-50 -50v-10q3 0 8.5 -0.5t19.5 -5.5t24.5 -13.5t19 -27t8.5 -43.5q0 -55 -37.5 -92.5t-102.5 -37.5q-66 0 -103 33t-37 87l10 10h70l10 -10q0 -40 50 -40q22 0 36 14t14 36q0 16 -10.5 27t-25.5 11q-13 0 -24 -8h-30z" />
    <glyph glyph-name="questiondown" unicode="&#xbf;" horiz-adv-x="600" 
d="M80 -20q0 69 23.5 107.5t76.5 82.5q49 41 64.5 64.5t15.5 65.5l10 10h80l10 -10q0 -60 -17.5 -96t-62.5 -74l-55 -47.5t-30 -41.5t-15 -61q0 -42 29 -71t91 -29q65 0 92.5 33.5t27.5 96.5l10 10h80l10 -10q0 -101 -55.5 -160.5t-164.5 -59.5q-99 0 -159.5 50.5
t-60.5 139.5zM250 490l10 10h100l10 -10v-100l-10 -10h-100l-10 10v100z" />
    <glyph glyph-name="Agrave" unicode="&#xc0;" horiz-adv-x="630" 
d="M610 10l-10 -10h-60l-10 10l-60 150l-20 10h-270l-20 -10l-60 -150l-10 -10h-60l-10 10v70l240 610l10 10h90l10 -10l240 -610v-70zM430 270l-110 280h-10l-110 -280l10 -10h210zM380 770l-10 -10h-50l-20 10l-110 100v20l10 10h70l20 -10l90 -100v-20z" />
    <glyph glyph-name="Aacute" unicode="&#xc1;" horiz-adv-x="630" 
d="M610 10l-10 -10h-60l-10 10l-60 150l-20 10h-270l-20 -10l-60 -150l-10 -10h-60l-10 10v70l240 610l10 10h90l10 -10l240 -610v-70zM430 270l-110 280h-10l-110 -280l10 -10h210zM440 870l-110 -100l-20 -10h-50l-10 10v20l90 100l20 10h70l10 -10v-20z" />
    <glyph glyph-name="Acircumflex" unicode="&#xc2;" horiz-adv-x="630" 
d="M470 770l-10 -10h-50l-20 10l-70 60h-10l-70 -60l-20 -10h-50l-10 10v20l90 100l20 10h90l20 -10l90 -100v-20zM610 10l-10 -10h-60l-10 10l-60 150l-20 10h-270l-20 -10l-60 -150l-10 -10h-60l-10 10v70l240 610l10 10h90l10 -10l240 -610v-70zM430 270l-110 280h-10
l-110 -280l10 -10h210z" />
    <glyph glyph-name="Atilde" unicode="&#xc3;" horiz-adv-x="630" 
d="M610 10l-10 -10h-60l-10 10l-60 150l-20 10h-270l-20 -10l-60 -150l-10 -10h-60l-10 10v70l240 610l10 10h90l10 -10l240 -610v-70zM430 270l-110 280h-10l-110 -280l10 -10h210zM380 750q-34 0 -60.5 17.5t-45 35t-34.5 17.5q-40 0 -40 -50l-10 -10h-30l-10 10
q0 48 25 79t75 31q34 0 60.5 -17.5t45 -35t34.5 -17.5q40 0 40 50l10 10h30l10 -10q0 -48 -25 -79t-75 -31z" />
    <glyph glyph-name="Adieresis" unicode="&#xc4;" horiz-adv-x="630" 
d="M460 790l-10 -10h-80l-10 10v80l10 10h80l10 -10v-80zM270 790l-10 -10h-80l-10 10v80l10 10h80l10 -10v-80zM610 10l-10 -10h-60l-10 10l-60 150l-20 10h-270l-20 -10l-60 -150l-10 -10h-60l-10 10v70l240 610l10 10h90l10 -10l240 -610v-70zM430 270l-110 280h-10
l-110 -280l10 -10h210z" />
    <glyph glyph-name="Aring" unicode="&#xc5;" horiz-adv-x="630" 
d="M320 720h-10q-44 0 -72 26t-28 64t28 64t72 26h10q44 0 72 -26t28 -64t-28 -64t-72 -26zM610 10l-10 -10h-60l-10 10l-60 150l-20 10h-270l-20 -10l-60 -150l-10 -10h-60l-10 10v70l240 610l10 10h90l10 -10l240 -610v-70zM430 270l-110 280h-10l-110 -280l10 -10h210z
M310 770h10q40 0 40 40t-40 40h-10q-40 0 -40 -40t40 -40z" />
    <glyph glyph-name="AE" unicode="&#xc6;" horiz-adv-x="960" 
d="M900 10l-10 -10h-420l-10 10v150l-10 10h-250l-20 -10l-80 -150l-10 -10h-60l-10 10v70l340 610l10 10h520l10 -10v-70l-10 -10h-320l-10 -10v-190l10 -10h300l10 -10v-70l-10 -10h-300l-10 -10v-200l10 -10h320l10 -10v-70zM460 270v330l-10 10h-20l-10 -10l-180 -330
l10 -10h200z" />
    <glyph glyph-name="Ccedilla" unicode="&#xc7;" horiz-adv-x="690" 
d="M410 -10l-20 -10l-50 -50h10q20 10 40 10q25 0 42.5 -17.5t17.5 -52.5q0 -37 -27.5 -58.5t-72.5 -21.5q-30 0 -48.5 8.5t-41.5 31.5v10l10 10h10q9 -9 21 -14t21 -5.5t28 -0.5q50 0 50 40t-50 40q-20 0 -40 -10h-10l-10 10v10l60 60v10q-138 8 -224 103.5t-86 256.5
t88 260.5t242 99.5q116 0 190 -58.5t90 -151.5l-10 -10h-80l-10 10q-16 55 -62 87.5t-118 32.5q-110 0 -170 -73.5t-60 -196.5t60 -196.5t170 -73.5q143 0 180 130l10 10h80l10 -10q-14 -97 -85 -154.5t-155 -65.5z" />
    <glyph glyph-name="Egrave" unicode="&#xc8;" horiz-adv-x="610" 
d="M550 10l-10 -10h-450l-10 10v680l10 10h450l10 -10v-70l-10 -10h-350l-10 -10v-190l10 -10h330l10 -10v-70l-10 -10h-330l-10 -10v-200l10 -10h350l10 -10v-70zM380 770l-10 -10h-50l-20 10l-110 100v20l10 10h70l20 -10l90 -100v-20z" />
    <glyph glyph-name="Eacute" unicode="&#xc9;" horiz-adv-x="610" 
d="M550 10l-10 -10h-450l-10 10v680l10 10h450l10 -10v-70l-10 -10h-350l-10 -10v-190l10 -10h330l10 -10v-70l-10 -10h-330l-10 -10v-200l10 -10h350l10 -10v-70zM440 870l-110 -100l-20 -10h-50l-10 10v20l90 100l20 10h70l10 -10v-20z" />
    <glyph glyph-name="Ecircumflex" unicode="&#xca;" horiz-adv-x="610" 
d="M550 10l-10 -10h-450l-10 10v680l10 10h450l10 -10v-70l-10 -10h-350l-10 -10v-190l10 -10h330l10 -10v-70l-10 -10h-330l-10 -10v-200l10 -10h350l10 -10v-70zM480 770l-10 -10h-50l-20 10l-70 60h-20l-70 -60l-20 -10h-50l-10 10v20l90 100l20 10h100l20 -10l90 -100
v-20z" />
    <glyph glyph-name="Edieresis" unicode="&#xcb;" horiz-adv-x="610" 
d="M550 10l-10 -10h-450l-10 10v680l10 10h450l10 -10v-70l-10 -10h-350l-10 -10v-190l10 -10h330l10 -10v-70l-10 -10h-330l-10 -10v-200l10 -10h350l10 -10v-70zM460 790l-10 -10h-80l-10 10v80l10 10h80l10 -10v-80zM280 790l-10 -10h-80l-10 10v80l10 10h80l10 -10v-80z
" />
    <glyph glyph-name="Igrave" unicode="&#xcc;" horiz-adv-x="260" 
d="M180 10l-10 -10h-80l-10 10v680l10 10h80l10 -10v-680zM190 770l-10 -10h-50l-20 10l-110 100v20l10 10h70l20 -10l90 -100v-20z" />
    <glyph glyph-name="Iacute" unicode="&#xcd;" horiz-adv-x="260" 
d="M180 10l-10 -10h-80l-10 10v680l10 10h80l10 -10v-680zM260 870l-110 -100l-20 -10h-50l-10 10v20l90 100l20 10h70l10 -10v-20z" />
    <glyph glyph-name="Icircumflex" unicode="&#xce;" horiz-adv-x="260" 
d="M180 10l-10 -10h-80l-10 10v680l10 10h80l10 -10v-680zM290 770l-10 -10h-50l-20 10l-70 60h-20l-70 -60l-20 -10h-50l-10 10v20l90 100l20 10h100l20 -10l90 -100v-20z" />
    <glyph glyph-name="Idieresis" unicode="&#xcf;" horiz-adv-x="260" 
d="M180 10l-10 -10h-80l-10 10v680l10 10h80l10 -10v-680zM270 790l-10 -10h-80l-10 10v80l10 10h80l10 -10v-80zM90 790l-10 -10h-80l-10 10v80l10 10h80l10 -10v-80z" />
    <glyph glyph-name="Eth" unicode="&#xd0;" horiz-adv-x="670" 
d="M0 320v70l10 10h60l10 10v280l10 10h210q178 0 254 -90.5t76 -259.5t-76 -259.5t-254 -90.5h-210l-10 10v290l-10 10h-60zM530 350q0 135 -52 197.5t-188 62.5h-100l-10 -10v-190l10 -10h150l10 -10v-70l-10 -10h-150l-10 -10v-200l10 -10h100q136 0 188 62.5t52 197.5z
" />
    <glyph glyph-name="Ntilde" unicode="&#xd1;" horiz-adv-x="730" 
d="M430 750q-34 0 -60.5 17.5t-45 35t-34.5 17.5q-40 0 -40 -50l-10 -10h-30l-10 10q0 48 25 79t75 31q34 0 60.5 -17.5t45 -35t34.5 -17.5q40 0 40 50l10 10h30l10 -10q0 -48 -25 -79t-75 -31zM650 10l-10 -10h-90l-20 10l-340 520h-10v-520l-10 -10h-80l-10 10v680l10 10
h90l20 -10l340 -520h10v520l10 10h80l10 -10v-680z" />
    <glyph glyph-name="Ograve" unicode="&#xd2;" horiz-adv-x="740" 
d="M40 350q0 161 88 260.5t242 99.5t242 -99.5t88 -260.5t-88 -260.5t-242 -99.5t-242 99.5t-88 260.5zM140 350q0 -123 60 -196.5t170 -73.5t170 73.5t60 196.5t-60 196.5t-170 73.5t-170 -73.5t-60 -196.5zM450 770l-10 -10h-50l-20 10l-110 100v20l10 10h70l20 -10
l90 -100v-20z" />
    <glyph glyph-name="Oacute" unicode="&#xd3;" horiz-adv-x="740" 
d="M40 350q0 161 88 260.5t242 99.5t242 -99.5t88 -260.5t-88 -260.5t-242 -99.5t-242 99.5t-88 260.5zM140 350q0 -123 60 -196.5t170 -73.5t170 73.5t60 196.5t-60 196.5t-170 73.5t-170 -73.5t-60 -196.5zM480 870l-110 -100l-20 -10h-50l-10 10v20l90 100l20 10h70
l10 -10v-20z" />
    <glyph glyph-name="Ocircumflex" unicode="&#xd4;" horiz-adv-x="740" 
d="M40 350q0 161 88 260.5t242 99.5t242 -99.5t88 -260.5t-88 -260.5t-242 -99.5t-242 99.5t-88 260.5zM140 350q0 -123 60 -196.5t170 -73.5t170 73.5t60 196.5t-60 196.5t-170 73.5t-170 -73.5t-60 -196.5zM530 770l-10 -10h-50l-20 10l-70 60h-20l-70 -60l-20 -10h-50
l-10 10v20l90 100l20 10h100l20 -10l90 -100v-20z" />
    <glyph glyph-name="Otilde" unicode="&#xd5;" horiz-adv-x="740" 
d="M40 350q0 161 88 260.5t242 99.5t242 -99.5t88 -260.5t-88 -260.5t-242 -99.5t-242 99.5t-88 260.5zM140 350q0 -123 60 -196.5t170 -73.5t170 73.5t60 196.5t-60 196.5t-170 73.5t-170 -73.5t-60 -196.5zM430 750q-34 0 -60.5 17.5t-45 35t-34.5 17.5q-40 0 -40 -50
l-10 -10h-30l-10 10q0 48 25 79t75 31q34 0 60.5 -17.5t45 -35t34.5 -17.5q40 0 40 50l10 10h30l10 -10q0 -48 -25 -79t-75 -31z" />
    <glyph glyph-name="Odieresis" unicode="&#xd6;" horiz-adv-x="740" 
d="M40 350q0 161 88 260.5t242 99.5t242 -99.5t88 -260.5t-88 -260.5t-242 -99.5t-242 99.5t-88 260.5zM140 350q0 -123 60 -196.5t170 -73.5t170 73.5t60 196.5t-60 196.5t-170 73.5t-170 -73.5t-60 -196.5zM510 790l-10 -10h-80l-10 10v80l10 10h80l10 -10v-80zM330 790
l-10 -10h-80l-10 10v80l10 10h80l10 -10v-80z" />
    <glyph glyph-name="multiply" unicode="&#xd7;" horiz-adv-x="610" 
d="M530 80l-50 -50h-10l-160 160h-10l-160 -160h-10l-50 50v10l160 160v10l-160 160v10l50 50h10l160 -160h10l160 160h10l50 -50v-10l-160 -160v-10l160 -160v-10z" />
    <glyph glyph-name="Oslash" unicode="&#xd8;" horiz-adv-x="740" 
d="M180 190l350 350v20q-60 60 -160 60q-110 0 -170 -73.5t-60 -196.5q0 -100 30 -160h10zM370 -10q-140 0 -230 90h-10l-40 -40l-20 -10h-10l-10 10v20l50 50v20q-60 90 -60 220q0 161 88 260.5t242 99.5q140 0 230 -90h10l40 40l20 10h10l10 -10v-20l-50 -50v-20
q60 -90 60 -220q0 -161 -88 -260.5t-242 -99.5zM560 510l-350 -350v-20q60 -60 160 -60q110 0 170 73.5t60 196.5q0 100 -30 160h-10z" />
    <glyph glyph-name="Ugrave" unicode="&#xd9;" horiz-adv-x="700" 
d="M620 690v-440q0 -121 -71.5 -190.5t-198.5 -69.5t-198.5 69.5t-71.5 190.5v440l10 10h80l10 -10v-440q0 -79 42 -124.5t128 -45.5t128 45.5t42 124.5v440l10 10h80zM410 770l-10 -10h-50l-20 10l-110 100v20l10 10h70l20 -10l90 -100v-20z" />
    <glyph glyph-name="Uacute" unicode="&#xda;" horiz-adv-x="700" 
d="M620 690v-440q0 -121 -71.5 -190.5t-198.5 -69.5t-198.5 69.5t-71.5 190.5v440l10 10h80l10 -10v-440q0 -79 42 -124.5t128 -45.5t128 45.5t42 124.5v440l10 10h80zM480 870l-110 -100l-20 -10h-50l-10 10v20l90 100l20 10h70l10 -10v-20z" />
    <glyph glyph-name="Ucircumflex" unicode="&#xdb;" horiz-adv-x="700" 
d="M620 690v-440q0 -121 -71.5 -190.5t-198.5 -69.5t-198.5 69.5t-71.5 190.5v440l10 10h80l10 -10v-440q0 -79 42 -124.5t128 -45.5t128 45.5t42 124.5v440l10 10h80zM510 770l-10 -10h-50l-20 10l-70 60h-20l-70 -60l-20 -10h-50l-10 10v20l90 100l20 10h100l20 -10
l90 -100v-20z" />
    <glyph glyph-name="Udieresis" unicode="&#xdc;" horiz-adv-x="700" 
d="M620 690v-440q0 -121 -71.5 -190.5t-198.5 -69.5t-198.5 69.5t-71.5 190.5v440l10 10h80l10 -10v-440q0 -79 42 -124.5t128 -45.5t128 45.5t42 124.5v440l10 10h80zM490 790l-10 -10h-80l-10 10v80l10 10h80l10 -10v-80zM310 790l-10 -10h-80l-10 10v80l10 10h80l10 -10
v-80z" />
    <glyph glyph-name="Yacute" unicode="&#xdd;" 
d="M550 620l-210 -340v-270l-10 -10h-80l-10 10v270l-210 340v70l10 10h40l20 -10l180 -300h20l180 300l20 10h40l10 -10v-70zM410 870l-110 -100l-20 -10h-50l-10 10v20l90 100l20 10h70l10 -10v-20z" />
    <glyph glyph-name="Thorn" unicode="&#xde;" horiz-adv-x="620" 
d="M190 240h160q68 0 99 25.5t31 84.5t-31 84.5t-99 25.5h-160l-10 -10v-200zM190 150l-10 -10v-130l-10 -10h-80l-10 10v680l10 10h80l10 -10v-130l10 -10h160q109 0 169.5 -49t60.5 -151q0 -100 -63.5 -150t-166.5 -50h-160z" />
    <glyph glyph-name="germandbls" unicode="&#xdf;" 
d="M550 210q0 -95 -54.5 -157.5t-155.5 -62.5q-22 0 -44.5 5t-33.5 10l-12 5l-10 10v60l10 10q40 -10 90 -10q56 0 83 36.5t27 93.5q0 63 -32 91.5t-118 28.5l-10 10v60l10 10q120 0 120 100q0 52 -25.5 81t-94.5 29q-54 0 -82 -26t-28 -84v-500l-10 -10h-80l-10 10v400
l-10 10h-50l-10 10v60l10 10h50l10 10q0 92 54 146t156 54q112 0 166 -54t54 -136q0 -100 -80 -140v-10q43 -9 76.5 -50t33.5 -110z" />
    <glyph glyph-name="agrave" unicode="&#xe0;" horiz-adv-x="500" 
d="M450 10l-10 -10h-70l-10 10l-10 40h-10q-2 -2 -5 -6.5t-15.5 -14.5t-27 -18t-39.5 -14.5t-53 -6.5q-82 0 -126 42t-44 118q0 80 59 120t161 40q22 0 44.5 -2.5t33.5 -5.5l12 -2l10 10v20q0 51 -23 70.5t-77 19.5q-100 0 -100 -60l-10 -10h-80l-10 10q0 61 48.5 105.5
t151.5 44.5q110 0 155 -52t45 -168v-280zM350 180v30l-10 10q-30 10 -80 10q-130 0 -130 -80q0 -70 90 -70q60 0 95 27.5t35 72.5zM320 570l-10 -10h-50l-20 10l-110 100v20l10 10h70l20 -10l90 -100v-20z" />
    <glyph glyph-name="aacute" unicode="&#xe1;" horiz-adv-x="500" 
d="M450 10l-10 -10h-70l-10 10l-10 40h-10q-2 -2 -5 -6.5t-15.5 -14.5t-27 -18t-39.5 -14.5t-53 -6.5q-82 0 -126 42t-44 118q0 80 59 120t161 40q22 0 44.5 -2.5t33.5 -5.5l12 -2l10 10v20q0 51 -23 70.5t-77 19.5q-100 0 -100 -60l-10 -10h-80l-10 10q0 61 48.5 105.5
t151.5 44.5q110 0 155 -52t45 -168v-280zM350 180v30l-10 10q-30 10 -80 10q-130 0 -130 -80q0 -70 90 -70q60 0 95 27.5t35 72.5zM370 670l-110 -100l-20 -10h-50l-10 10v20l90 100l20 10h70l10 -10v-20z" />
    <glyph glyph-name="acircumflex" unicode="&#xe2;" horiz-adv-x="500" 
d="M450 10l-10 -10h-70l-10 10l-10 40h-10q-2 -2 -5 -6.5t-15.5 -14.5t-27 -18t-39.5 -14.5t-53 -6.5q-82 0 -126 42t-44 118q0 80 59 120t161 40q22 0 44.5 -2.5t33.5 -5.5l12 -2l10 10v20q0 51 -23 70.5t-77 19.5q-100 0 -100 -60l-10 -10h-80l-10 10q0 61 48.5 105.5
t151.5 44.5q110 0 155 -52t45 -168v-280zM350 180v30l-10 10q-30 10 -80 10q-130 0 -130 -80q0 -70 90 -70q60 0 95 27.5t35 72.5zM410 570l-10 -10h-50l-20 10l-70 60h-20l-70 -60l-20 -10h-50l-10 10v20l90 100l20 10h100l20 -10l90 -100v-20z" />
    <glyph glyph-name="atilde" unicode="&#xe3;" horiz-adv-x="500" 
d="M320 550q-34 0 -60.5 17.5t-45 35t-34.5 17.5q-40 0 -40 -50l-10 -10h-30l-10 10q0 48 25 79t75 31q34 0 60.5 -17.5t45 -35t34.5 -17.5q40 0 40 50l10 10h30l10 -10q0 -48 -25 -79t-75 -31zM450 10l-10 -10h-70l-10 10l-10 40h-10q-2 -2 -5 -6.5t-15.5 -14.5t-27 -18
t-39.5 -14.5t-53 -6.5q-82 0 -126 42t-44 118q0 80 59 120t161 40q22 0 44.5 -2.5t33.5 -5.5l12 -2l10 10v20q0 51 -23 70.5t-77 19.5q-100 0 -100 -60l-10 -10h-80l-10 10q0 61 48.5 105.5t151.5 44.5q110 0 155 -52t45 -168v-280zM350 180v30l-10 10q-30 10 -80 10
q-130 0 -130 -80q0 -70 90 -70q60 0 95 27.5t35 72.5z" />
    <glyph glyph-name="adieresis" unicode="&#xe4;" horiz-adv-x="500" 
d="M450 10l-10 -10h-70l-10 10l-10 40h-10q-2 -2 -5 -6.5t-15.5 -14.5t-27 -18t-39.5 -14.5t-53 -6.5q-82 0 -126 42t-44 118q0 80 59 120t161 40q22 0 44.5 -2.5t33.5 -5.5l12 -2l10 10v20q0 51 -23 70.5t-77 19.5q-100 0 -100 -60l-10 -10h-80l-10 10q0 61 48.5 105.5
t151.5 44.5q110 0 155 -52t45 -168v-280zM350 180v30l-10 10q-30 10 -80 10q-130 0 -130 -80q0 -70 90 -70q60 0 95 27.5t35 72.5zM390 590l-10 -10h-80l-10 10v80l10 10h80l10 -10v-80zM210 590l-10 -10h-80l-10 10v80l10 10h80l10 -10v-80z" />
    <glyph glyph-name="aring" unicode="&#xe5;" horiz-adv-x="500" 
d="M450 10l-10 -10h-70l-10 10l-10 40h-10q-2 -2 -5 -6.5t-15.5 -14.5t-27 -18t-39.5 -14.5t-53 -6.5q-82 0 -126 42t-44 118q0 80 59 120t161 40q22 0 44.5 -2.5t33.5 -5.5l12 -2l10 10v20q0 51 -23 70.5t-77 19.5q-100 0 -100 -60l-10 -10h-80l-10 10q0 61 48.5 105.5
t151.5 44.5q110 0 155 -52t45 -168v-280zM350 180v30l-10 10q-30 10 -80 10q-130 0 -130 -80q0 -70 90 -70q60 0 95 27.5t35 72.5zM350 640q0 -38 -28 -64t-72 -26t-72 26t-28 64t28 64t72 26t72 -26t28 -64zM290 640q0 40 -40 40t-40 -40t40 -40t40 40z" />
    <glyph glyph-name="ae" unicode="&#xe6;" horiz-adv-x="830" 
d="M350 180v30l-10 10q-30 10 -80 10q-130 0 -130 -80q0 -70 90 -70q60 0 95 27.5t35 72.5zM680 290l10 10q0 16 -4 32.5t-14.5 38t-37 35.5t-64.5 14t-64.5 -14t-37 -35.5t-14.5 -38t-4 -32.5l10 -10h220zM580 -10q-110 0 -180 70h-10q-38 -38 -80.5 -54t-109.5 -16
q-82 0 -126 42t-44 118q0 80 59 120t161 40q22 0 44.5 -2.5t33.5 -5.5l12 -2l10 10v10q0 58 -22.5 79t-77.5 21q-100 0 -100 -60l-10 -10h-80l-10 10q0 61 48.5 105.5t151.5 44.5q115 0 160 -60h10q45 60 150 60q114 0 172 -73.5t58 -186.5v-30l-10 -10h-330l-10 -10
q0 -9 2 -20.5t9.5 -30t20.5 -33t38.5 -25.5t59.5 -11q76 0 100 60l10 10h80l10 -10q-8 -64 -61 -107t-139 -43z" />
    <glyph glyph-name="ccedilla" unicode="&#xe7;" horiz-adv-x="520" 
d="M490 160q-7 -73 -59.5 -117.5t-130.5 -52.5l-20 -10l-50 -50h10q20 10 40 10q25 0 42.5 -17.5t17.5 -52.5q0 -37 -27.5 -58.5t-72.5 -21.5q-30 0 -48.5 8.5t-41.5 31.5v10l10 10h10q9 -9 21 -14t21 -5.5t28 -0.5q50 0 50 40t-50 40q-20 0 -40 -10h-10l-10 10v10l60 60v10
q-90 8 -150 74t-60 186t64 190t176 70q99 0 155.5 -48.5t64.5 -121.5l-10 -10h-80l-10 10q-20 80 -120 80q-68 0 -104 -44t-36 -126t36 -126t104 -44q100 0 120 80l10 10h80z" />
    <glyph glyph-name="egrave" unicode="&#xe8;" horiz-adv-x="520" 
d="M370 290l10 10q0 16 -4 32.5t-14.5 38t-37 35.5t-64.5 14t-64.5 -14t-37 -35.5t-14.5 -38t-4 -32.5l10 -10h220zM270 -10q-116 0 -178 71.5t-62 188.5q0 113 58 186.5t172 73.5t172 -73.5t58 -186.5v-30l-10 -10h-330l-10 -10q0 -9 2 -20.5t9.5 -30t20.5 -33t38.5 -25.5
t59.5 -11q76 0 100 60l10 10h80l10 -10q-8 -64 -61 -107t-139 -43zM330 570l-10 -10h-50l-20 10l-110 100v20l10 10h70l20 -10l90 -100v-20z" />
    <glyph glyph-name="eacute" unicode="&#xe9;" horiz-adv-x="520" 
d="M370 290l10 10q0 16 -4 32.5t-14.5 38t-37 35.5t-64.5 14t-64.5 -14t-37 -35.5t-14.5 -38t-4 -32.5l10 -10h220zM270 -10q-116 0 -178 71.5t-62 188.5q0 113 58 186.5t172 73.5t172 -73.5t58 -186.5v-30l-10 -10h-330l-10 -10q0 -9 2 -20.5t9.5 -30t20.5 -33t38.5 -25.5
t59.5 -11q76 0 100 60l10 10h80l10 -10q-8 -64 -61 -107t-139 -43zM380 670l-110 -100l-20 -10h-50l-10 10v20l90 100l20 10h70l10 -10v-20z" />
    <glyph glyph-name="ecircumflex" unicode="&#xea;" horiz-adv-x="520" 
d="M370 290l10 10q0 16 -4 32.5t-14.5 38t-37 35.5t-64.5 14t-64.5 -14t-37 -35.5t-14.5 -38t-4 -32.5l10 -10h220zM270 -10q-116 0 -178 71.5t-62 188.5q0 113 58 186.5t172 73.5t172 -73.5t58 -186.5v-30l-10 -10h-330l-10 -10q0 -9 2 -20.5t9.5 -30t20.5 -33t38.5 -25.5
t59.5 -11q76 0 100 60l10 10h80l10 -10q-8 -64 -61 -107t-139 -43zM420 570l-10 -10h-50l-20 10l-70 60h-20l-70 -60l-20 -10h-50l-10 10v20l90 100l20 10h100l20 -10l90 -100v-20z" />
    <glyph glyph-name="edieresis" unicode="&#xeb;" horiz-adv-x="520" 
d="M370 290l10 10q0 16 -4 32.5t-14.5 38t-37 35.5t-64.5 14t-64.5 -14t-37 -35.5t-14.5 -38t-4 -32.5l10 -10h220zM270 -10q-116 0 -178 71.5t-62 188.5q0 113 58 186.5t172 73.5t172 -73.5t58 -186.5v-30l-10 -10h-330l-10 -10q0 -9 2 -20.5t9.5 -30t20.5 -33t38.5 -25.5
t59.5 -11q76 0 100 60l10 10h80l10 -10q-8 -64 -61 -107t-139 -43zM400 590l-10 -10h-80l-10 10v80l10 10h80l10 -10v-80zM220 590l-10 -10h-80l-10 10v80l10 10h80l10 -10v-80z" />
    <glyph glyph-name="igrave" unicode="&#xec;" horiz-adv-x="220" 
d="M160 10l-10 -10h-80l-10 10v480l10 10h80l10 -10v-480zM170 570l-10 -10h-50l-20 10l-110 100v20l10 10h70l20 -10l90 -100v-20z" />
    <glyph glyph-name="iacute" unicode="&#xed;" horiz-adv-x="220" 
d="M160 10l-10 -10h-80l-10 10v480l10 10h80l10 -10v-480zM240 670l-110 -100l-20 -10h-50l-10 10v20l90 100l20 10h70l10 -10v-20z" />
    <glyph glyph-name="icircumflex" unicode="&#xee;" horiz-adv-x="220" 
d="M160 10l-10 -10h-80l-10 10v480l10 10h80l10 -10v-480zM270 570l-10 -10h-50l-20 10l-70 60h-20l-70 -60l-20 -10h-50l-10 10v20l90 100l20 10h100l20 -10l90 -100v-20z" />
    <glyph glyph-name="idieresis" unicode="&#xef;" horiz-adv-x="220" 
d="M160 10l-10 -10h-80l-10 10v480l10 10h80l10 -10v-480zM250 590l-10 -10h-80l-10 10v80l10 10h80l10 -10v-80zM70 590l-10 -10h-80l-10 10v80l10 10h80l10 -10v-80z" />
    <glyph glyph-name="eth" unicode="&#xf0;" horiz-adv-x="520" 
d="M350 470h10q-14 69 -60 100h-10l-30 -30l-20 -10h-50l-10 10v30l30 30v10q-30 10 -70 10l-10 10v10l40 40l20 10q50 0 80 -10h10l30 30l20 10h60l10 -10v-20l-40 -40v-10q72 -58 101 -149.5t29 -240.5q0 -125 -61.5 -192.5t-168.5 -67.5q-98 0 -164 66t-66 194
q0 119 61 189.5t159 70.5q31 0 56 -10t34 -20zM390 250q0 170 -130 170t-130 -170t130 -170t130 170z" />
    <glyph glyph-name="ntilde" unicode="&#xf1;" horiz-adv-x="540" 
d="M340 550q-34 0 -60.5 17.5t-45 35t-34.5 17.5q-40 0 -40 -50l-10 -10h-30l-10 10q0 48 25 79t75 31q34 0 60.5 -17.5t45 -35t34.5 -17.5q40 0 40 50l10 10h30l10 -10q0 -48 -25 -79t-75 -31zM490 10l-10 -10h-80l-10 10v290q0 120 -100 120q-68 0 -99 -40t-31 -130v-240
l-10 -10h-80l-10 10v480l10 10h70l10 -10l10 -40h10q2 2 5 6.5t15 14.5t25.5 18t36.5 14.5t48 6.5q100 0 145 -56.5t45 -153.5v-290z" />
    <glyph glyph-name="ograve" unicode="&#xf2;" horiz-adv-x="540" 
d="M30 250q0 120 64 190t176 70t176 -70t64 -190t-64 -190t-176 -70t-176 70t-64 190zM130 250q0 -82 36 -126t104 -44t104 44t36 126t-36 126t-104 44t-104 -44t-36 -126zM340 570l-10 -10h-50l-20 10l-110 100v20l10 10h70l20 -10l90 -100v-20z" />
    <glyph glyph-name="oacute" unicode="&#xf3;" horiz-adv-x="540" 
d="M30 250q0 120 64 190t176 70t176 -70t64 -190t-64 -190t-176 -70t-176 70t-64 190zM130 250q0 -82 36 -126t104 -44t104 44t36 126t-36 126t-104 44t-104 -44t-36 -126zM390 670l-110 -100l-20 -10h-50l-10 10v20l90 100l20 10h70l10 -10v-20z" />
    <glyph glyph-name="ocircumflex" unicode="&#xf4;" horiz-adv-x="540" 
d="M30 250q0 120 64 190t176 70t176 -70t64 -190t-64 -190t-176 -70t-176 70t-64 190zM130 250q0 -82 36 -126t104 -44t104 44t36 126t-36 126t-104 44t-104 -44t-36 -126zM430 570l-10 -10h-50l-20 10l-70 60h-20l-70 -60l-20 -10h-50l-10 10v20l90 100l20 10h100l20 -10
l90 -100v-20z" />
    <glyph glyph-name="otilde" unicode="&#xf5;" horiz-adv-x="540" 
d="M30 250q0 120 64 190t176 70t176 -70t64 -190t-64 -190t-176 -70t-176 70t-64 190zM130 250q0 -82 36 -126t104 -44t104 44t36 126t-36 126t-104 44t-104 -44t-36 -126zM340 550q-34 0 -60.5 17.5t-45 35t-34.5 17.5q-40 0 -40 -50l-10 -10h-30l-10 10q0 48 25 79t75 31
q34 0 60.5 -17.5t45 -35t34.5 -17.5q40 0 40 50l10 10h30l10 -10q0 -48 -25 -79t-75 -31z" />
    <glyph glyph-name="odieresis" unicode="&#xf6;" horiz-adv-x="540" 
d="M30 250q0 120 64 190t176 70t176 -70t64 -190t-64 -190t-176 -70t-176 70t-64 190zM130 250q0 -82 36 -126t104 -44t104 44t36 126t-36 126t-104 44t-104 -44t-36 -126zM410 590l-10 -10h-80l-10 10v80l10 10h80l10 -10v-80zM230 590l-10 -10h-80l-10 10v80l10 10h80
l10 -10v-80z" />
    <glyph glyph-name="divide" unicode="&#xf7;" horiz-adv-x="600" 
d="M540 220l-10 -10h-460l-10 10v70l10 10h460l10 -10v-70zM360 20l-10 -10h-100l-10 10v100l10 10h100l10 -10v-100zM360 390l-10 -10h-100l-10 10v100l10 10h100l10 -10v-100z" />
    <glyph glyph-name="oslash" unicode="&#xf8;" horiz-adv-x="540" 
d="M150 160l210 210v20q-30 30 -90 30q-68 0 -104 -44t-36 -126q0 -70 10 -90h10zM270 -10q-100 0 -160 60h-10l-30 -30l-20 -10h-10l-10 10v20l40 40v10q-40 60 -40 160q0 120 64 190t176 70q100 0 160 -60h10l30 30l20 10h10l10 -10v-20l-40 -40v-10q40 -60 40 -160
q0 -120 -64 -190t-176 -70zM390 340l-210 -210v-20q30 -30 90 -30q68 0 104 44t36 126q0 70 -10 90h-10z" />
    <glyph glyph-name="ugrave" unicode="&#xf9;" horiz-adv-x="530" 
d="M470 10l-10 -10h-70l-10 10l-10 40h-10q-2 -2 -5 -6.5t-14 -14.5t-24 -18t-34 -14.5t-43 -6.5q-98 0 -144 59.5t-46 150.5v290l10 10h80l10 -10v-290q0 -120 100 -120q55 0 87.5 42t32.5 128v240l10 10h80l10 -10v-480zM320 570l-10 -10h-50l-20 10l-110 100v20l10 10h70
l20 -10l90 -100v-20z" />
    <glyph glyph-name="uacute" unicode="&#xfa;" horiz-adv-x="530" 
d="M470 10l-10 -10h-70l-10 10l-10 40h-10q-2 -2 -5 -6.5t-14 -14.5t-24 -18t-34 -14.5t-43 -6.5q-98 0 -144 59.5t-46 150.5v290l10 10h80l10 -10v-290q0 -120 100 -120q55 0 87.5 42t32.5 128v240l10 10h80l10 -10v-480zM390 670l-110 -100l-20 -10h-50l-10 10v20l90 100
l20 10h70l10 -10v-20z" />
    <glyph glyph-name="ucircumflex" unicode="&#xfb;" horiz-adv-x="530" 
d="M470 10l-10 -10h-70l-10 10l-10 40h-10q-2 -2 -5 -6.5t-14 -14.5t-24 -18t-34 -14.5t-43 -6.5q-98 0 -144 59.5t-46 150.5v290l10 10h80l10 -10v-290q0 -120 100 -120q55 0 87.5 42t32.5 128v240l10 10h80l10 -10v-480zM420 570l-10 -10h-50l-20 10l-70 60h-20l-70 -60
l-20 -10h-50l-10 10v20l90 100l20 10h100l20 -10l90 -100v-20z" />
    <glyph glyph-name="udieresis" unicode="&#xfc;" horiz-adv-x="530" 
d="M470 10l-10 -10h-70l-10 10l-10 40h-10q-2 -2 -5 -6.5t-14 -14.5t-24 -18t-34 -14.5t-43 -6.5q-98 0 -144 59.5t-46 150.5v290l10 10h80l10 -10v-290q0 -120 100 -120q55 0 87.5 42t32.5 128v240l10 10h80l10 -10v-480zM400 590l-10 -10h-80l-10 10v80l10 10h80l10 -10
v-80zM220 590l-10 -10h-80l-10 10v80l10 10h80l10 -10v-80z" />
    <glyph glyph-name="yacute" unicode="&#xfd;" horiz-adv-x="510" 
d="M480 420l-160 -400q-45 -112 -87 -146t-133 -34h-20l-10 10v70l10 10h20q40 0 63 12t37 48v10l-170 420v70l10 10h60l10 -10l140 -370h10l140 370l10 10h60l10 -10v-70zM380 670l-110 -100l-20 -10h-50l-10 10v20l90 100l20 10h70l10 -10v-20z" />
    <glyph glyph-name="thorn" unicode="&#xfe;" horiz-adv-x="550" 
d="M510 250q0 -116 -52.5 -188t-147.5 -72q-44 0 -79 15t-48 30l-13 15h-10v-240l-10 -10h-80l-10 10v880l10 10h80l10 -10v-240h10q2 2 5 6.5t15.5 14.5t27 18t39.5 14.5t53 6.5q95 0 147.5 -72t52.5 -188zM410 250q0 170 -120 170q-130 0 -130 -170t130 -170
q120 0 120 170z" />
    <glyph glyph-name="ydieresis" unicode="&#xff;" horiz-adv-x="510" 
d="M400 590l-10 -10h-80l-10 10v80l10 10h80l10 -10v-80zM210 590l-10 -10h-80l-10 10v80l10 10h80l10 -10v-80zM480 420l-160 -400q-45 -112 -87 -146t-133 -34h-20l-10 10v70l10 10h20q40 0 63 12t37 48v10l-170 420v70l10 10h60l10 -10l140 -370h10l140 370l10 10h60
l10 -10v-70z" />
    <glyph glyph-name="dotlessi" unicode="&#x131;" horiz-adv-x="220" 
d="M160 10l-10 -10h-80l-10 10v480l10 10h80l10 -10v-480z" />
    <glyph glyph-name="IJ" unicode="&#x132;" horiz-adv-x="620" 
d="M180 10l-10 -10h-80l-10 10v680l10 10h80l10 -10v-680zM270 0l-10 10v70l10 10h60q54 0 82 26t28 84v490l10 10h80l10 -10v-490q0 -89 -51.5 -144.5t-158.5 -55.5h-60z" />
    <glyph glyph-name="ij" unicode="&#x133;" horiz-adv-x="420" 
d="M160 590l-10 -10h-80l-10 10v80l10 10h80l10 -10v-80zM160 10l-10 -10h-80l-10 10v480l10 10h80l10 -10v-480zM360 590l-10 -10h-80l-10 10v80l10 10h80l10 -10v-80zM360 490v-540q0 -63 -41 -96.5t-99 -33.5h-50l-10 10v70l10 10h50q40 0 40 40v540l10 10h80z" />
    <glyph glyph-name="Lslash" unicode="&#x141;" horiz-adv-x="540" 
d="M80 200h-10l-40 -30h-30l-10 10v60l80 60l10 20v370l10 10h80l10 -10v-310h10l160 120h30l10 -10v-60l-200 -150l-10 -20v-160l10 -10h330l10 -10v-70l-10 -10h-430l-10 10v190z" />
    <glyph glyph-name="lslash" unicode="&#x142;" horiz-adv-x="210" 
d="M170 470h10l40 30h30l10 -10v-60l-80 -60l-10 -20v-340l-10 -10h-80l-10 10v280h-10l-40 -30h-30l-10 10v60l80 60l10 20v280l10 10h80l10 -10v-220z" />
    <glyph glyph-name="OE" unicode="&#x152;" horiz-adv-x="1010" 
d="M510 690l10 10h420l10 -10v-70l-10 -10h-320l-10 -10v-190l10 -10h300l10 -10v-70l-10 -10h-300l-10 -10v-200l10 -10h320l10 -10v-70l-10 -10h-420l-10 10v30h-10q-7 -6 -20 -14t-57 -22t-93 -14q-139 0 -219.5 92t-80.5 268t80.5 268t219.5 92q49 0 91.5 -12.5
t60.5 -25.5l18 -12h10v30zM510 170v360q-14 44 -61 67t-109 23q-210 0 -210 -270t210 -270q62 0 109 23.5t61 66.5z" />
    <glyph glyph-name="oe" unicode="&#x153;" horiz-adv-x="890" 
d="M270 80q68 0 104 44t36 126t-36 126t-104 44t-104 -44t-36 -126t36 -126t104 -44zM740 290l10 10q0 16 -4 32.5t-14.5 38t-37 35.5t-64.5 14t-64.5 -14t-37 -35.5t-14.5 -38t-4 -32.5l10 -10h220zM270 -10q-112 0 -176 70t-64 190t64 190t176 70q120 0 180 -80h10
q60 80 170 80q114 0 172 -73.5t58 -186.5v-30l-10 -10h-330l-10 -10q0 -9 2 -20.5t9.5 -30t20.5 -33t38.5 -25.5t59.5 -11q76 0 100 60l10 10h80l10 -10q-8 -64 -61 -107t-139 -43q-110 0 -180 70h-10q-70 -70 -180 -70z" />
    <glyph glyph-name="Scaron" unicode="&#x160;" horiz-adv-x="630" 
d="M590 190q0 -88 -67.5 -144t-202.5 -56q-130 0 -205 59.5t-75 170.5l10 10h80l10 -10q0 -140 190 -140q73 0 116.5 26.5t43.5 83.5q0 64 -43.5 89t-156.5 41q-230 33 -230 200q0 77 62.5 133.5t187.5 56.5q119 0 189.5 -51.5t70.5 -158.5l-10 -10h-80l-10 10q0 62 -38 91
t-132 29q-66 0 -103 -27t-37 -73q0 -58 40 -81t150 -39q116 -17 178 -64.5t62 -145.5zM150 890l10 10h50l20 -10l70 -60h20l70 60l20 10h50l10 -10v-20l-90 -100l-20 -10h-100l-20 10l-90 100v20z" />
    <glyph glyph-name="scaron" unicode="&#x161;" horiz-adv-x="460" 
d="M430 140q0 -65 -50.5 -107.5t-149.5 -42.5q-97 0 -148.5 43.5t-51.5 126.5l10 10h80l10 -10q0 -80 100 -80t100 60q0 36 -25 50t-105 30q-79 16 -119.5 50.5t-40.5 99.5q0 59 46 99.5t144 40.5q86 0 138 -38.5t52 -111.5l-10 -10h-80l-10 10q0 60 -90 60t-90 -50
q0 -35 28.5 -49t111.5 -31q78 -16 114 -50t36 -100zM70 690l10 10h50l20 -10l70 -60h20l70 60l20 10h50l10 -10v-20l-90 -100l-20 -10h-100l-20 10l-90 100v20z" />
    <glyph glyph-name="Ydieresis" unicode="&#x178;" 
d="M550 620l-210 -340v-270l-10 -10h-80l-10 10v270l-210 340v70l10 10h40l20 -10l180 -300h20l180 300l20 10h40l10 -10v-70zM430 790l-10 -10h-80l-10 10v80l10 10h80l10 -10v-80zM250 790l-10 -10h-80l-10 10v80l10 10h80l10 -10v-80z" />
    <glyph glyph-name="Zcaron" unicode="&#x17d;" horiz-adv-x="600" 
d="M550 10l-10 -10h-480l-10 10v80l10 20l350 490v10h-340l-10 10v70l10 10h450l10 -10v-80l-10 -20l-350 -490v-10h370l10 -10v-70zM140 890l10 10h50l20 -10l70 -60h20l70 60l20 10h50l10 -10v-20l-90 -100l-20 -10h-100l-20 10l-90 100v20z" />
    <glyph glyph-name="zcaron" unicode="&#x17e;" horiz-adv-x="500" 
d="M460 10l-10 -10h-400l-10 10v80l10 20l270 290v10h-260l-10 10v70l10 10h380l10 -10v-80l-10 -20l-270 -290v-10h280l10 -10v-70zM110 690l10 10h50l20 -10l70 -60h20l70 60l20 10h50l10 -10v-20l-90 -100l-20 -10h-100l-20 10l-90 100v20z" />
    <glyph glyph-name="longs" unicode="&#x17f;" horiz-adv-x="350" 
d="M220 550v-540l-10 -10h-80l-10 10v390l-10 10h-70l-10 10v70l10 10h70l10 10v40q0 63 41 96.5t99 33.5h80l10 -10v-70l-10 -10h-80q-40 0 -40 -40z" />
    <glyph glyph-name="florin" unicode="&#x192;" 
d="M400 560l-10 -50l10 -10h130l10 -10v-60l-10 -10h-150l-10 -10l-90 -450q-16 -82 -58.5 -121t-141.5 -39h-10l-10 10v60l10 10h20q42 0 62 19.5t28 60.5l90 450l-10 10h-70l-10 10v60l10 10h90l10 10l10 50q15 75 56.5 107.5t123.5 32.5h20l10 -10v-60l-10 -10h-30
q-32 0 -47.5 -12t-22.5 -48z" />
    <glyph glyph-name="circumflex" unicode="&#x2c6;" horiz-adv-x="500" 
d="M410 570l-10 -10h-50l-20 10l-70 60h-20l-70 -60l-20 -10h-50l-10 10v20l90 100l20 10h100l20 -10l90 -100v-20z" />
    <glyph glyph-name="caron" unicode="&#x2c7;" horiz-adv-x="500" 
d="M90 690l10 10h50l20 -10l70 -60h20l70 60l20 10h50l10 -10v-20l-90 -100l-20 -10h-100l-20 10l-90 100v20z" />
    <glyph glyph-name="uni02C9" unicode="&#x2c9;" horiz-adv-x="500" 
d="M410 590l-10 -10h-300l-10 10v60l10 10h300l10 -10v-60z" />
    <glyph glyph-name="breve" unicode="&#x2d8;" horiz-adv-x="500" 
d="M170 690l10 -10q0 -29 19.5 -44.5t50.5 -15.5t50.5 15.5t19.5 44.5l10 10h50l10 -10q0 -59 -39.5 -94.5t-100.5 -35.5t-100.5 35.5t-39.5 94.5l10 10h50z" />
    <glyph glyph-name="dotaccent" unicode="&#x2d9;" horiz-adv-x="500" 
d="M300 590l-10 -10h-80l-10 10v80l10 10h80l10 -10v-80z" />
    <glyph glyph-name="ring" unicode="&#x2da;" horiz-adv-x="500" 
d="M350 640q0 -38 -28 -64t-72 -26t-72 26t-28 64t28 64t72 26t72 -26t28 -64zM290 640q0 40 -40 40t-40 -40t40 -40t40 40z" />
    <glyph glyph-name="ogonek" unicode="&#x2db;" horiz-adv-x="500" 
d="M230 0h80q-46 -8 -73 -29t-27 -51q0 -22 14 -36t36 -14q13 0 25.5 2.5t18.5 5.5l6 2l10 -10v-40l-10 -10q-30 -20 -70 -20q-46 0 -78 28t-32 72q0 42 29 67t71 33z" />
    <glyph glyph-name="tilde" unicode="&#x2dc;" horiz-adv-x="500" 
d="M310 550q-34 0 -60.5 17.5t-45 35t-34.5 17.5q-40 0 -40 -50l-10 -10h-30l-10 10q0 48 25 79t75 31q34 0 60.5 -17.5t45 -35t34.5 -17.5q40 0 40 50l10 10h30l10 -10q0 -48 -25 -79t-75 -31z" />
    <glyph glyph-name="hungarumlaut" unicode="&#x2dd;" horiz-adv-x="500" 
d="M250 670l-110 -100l-20 -10h-50l-10 10v20l90 100l20 10h70l10 -10v-20zM450 670l-110 -100l-20 -10h-50l-10 10v20l90 100l20 10h70l10 -10v-20z" />
    <glyph glyph-name="uni0394" unicode="&#x394;" 
d="M40 0l-10 10v70l200 610l10 10h100l10 -10l200 -610v-70l-10 -10h-500zM280 560l-150 -460v-10h320v10l-150 460h-20z" />
    <glyph glyph-name="uni03A9" unicode="&#x3a9;" horiz-adv-x="760" 
d="M200 90v10q-84 84 -117 143t-33 157q0 152 90.5 231t239.5 79t239.5 -79t90.5 -231q0 -98 -33 -157t-117 -143v-10h120l10 -10v-70l-10 -10h-230l-10 10v80l10 20q47 47 68.5 70.5t47 60t35 71t9.5 78.5q0 116 -60.5 173t-169.5 57t-169.5 -57t-60.5 -173
q0 -44 9.5 -78.5t35 -71t47 -60t68.5 -70.5l10 -20v-80l-10 -10h-230l-10 10v70l10 10h120z" />
    <glyph glyph-name="uni03BC" unicode="&#x3bc;" 
d="M400 30h-10q-40 -40 -100 -40q-27 0 -52 10t-36 20l-12 10h-10v-220l-10 -10h-80l-10 10v680l10 10h80l10 -10v-260q0 -150 110 -150t110 150v260l10 10h80l10 -10v-480l-10 -10h-70l-10 10z" />
    <glyph glyph-name="pi" unicode="&#x3c0;" 
d="M520 10l-10 -10h-160l-10 10v390l-10 10h-90l-10 -10v-390l-10 -10h-80l-10 10v390l-10 10h-60l-10 10v70l10 10h460l10 -10v-70l-10 -10h-70l-10 -10v-300l10 -10h60l10 -10v-70z" />
    <glyph glyph-name="uni2007" unicode="&#x2007;" 
 />
    <glyph glyph-name="uni2008" unicode="&#x2008;" horiz-adv-x="280" 
 />
    <glyph glyph-name="uni200B" unicode="&#x200b;" horiz-adv-x="0" 
 />
    <glyph glyph-name="endash" unicode="&#x2013;" horiz-adv-x="620" 
d="M560 220l-10 -10h-480l-10 10v70l10 10h480l10 -10v-70z" />
    <glyph glyph-name="emdash" unicode="&#x2014;" horiz-adv-x="1120" 
d="M1060 220l-10 -10h-980l-10 10v70l10 10h980l10 -10v-70z" />
    <glyph glyph-name="quoteleft" unicode="&#x2018;" horiz-adv-x="280" 
d="M200 690l-60 -90v-10l10 -10h30l10 -10v-100l-10 -10h-100l-10 10v110l10 30l60 80l20 10h40v-10z" />
    <glyph glyph-name="quoteright" unicode="&#x2019;" horiz-adv-x="280" 
d="M210 580l-10 -30l-60 -80l-20 -10h-40v10l60 90v10l-10 10h-30l-10 10v100l10 10h100l10 -10v-110z" />
    <glyph glyph-name="quotesinglbase" unicode="&#x201a;" horiz-adv-x="280" 
d="M200 0l-10 -30l-60 -80l-20 -10h-40v10l60 90v10l-10 10h-30l-10 10v100l10 10h100l10 -10v-110z" />
    <glyph glyph-name="quotedblleft" unicode="&#x201c;" horiz-adv-x="480" 
d="M400 690l-60 -90v-10l10 -10h30l10 -10v-100l-10 -10h-100l-10 10v110l10 30l60 80l20 10h40v-10zM200 690l-60 -90v-10l10 -10h30l10 -10v-100l-10 -10h-100l-10 10v110l10 30l60 80l20 10h40v-10z" />
    <glyph glyph-name="quotedblright" unicode="&#x201d;" horiz-adv-x="480" 
d="M410 580l-10 -30l-60 -80l-20 -10h-40v10l60 90v10l-10 10h-30l-10 10v100l10 10h100l10 -10v-110zM210 580l-10 -30l-60 -80l-20 -10h-40v10l60 90v10l-10 10h-30l-10 10v100l10 10h100l10 -10v-110z" />
    <glyph glyph-name="quotedblbase" unicode="&#x201e;" horiz-adv-x="480" 
d="M400 0l-10 -30l-60 -80l-20 -10h-40v10l60 90v10l-10 10h-30l-10 10v100l10 10h100l10 -10v-110zM200 0l-10 -30l-60 -80l-20 -10h-40v10l60 90v10l-10 10h-30l-10 10v100l10 10h100l10 -10v-110z" />
    <glyph glyph-name="dagger" unicode="&#x2020;" 
d="M340 -190l-10 -10h-80l-10 10v590l-10 10h-180l-10 10v70l10 10h180l10 10v180l10 10h80l10 -10v-180l10 -10h180l10 -10v-70l-10 -10h-180l-10 -10v-590z" />
    <glyph glyph-name="daggerdbl" unicode="&#x2021;" 
d="M240 690l10 10h80l10 -10v-180l10 -10h180l10 -10v-70l-10 -10h-180l-10 -10v-300l10 -10h180l10 -10v-70l-10 -10h-180l-10 -10v-180l-10 -10h-80l-10 10v180l-10 10h-180l-10 10v70l10 10h180l10 10v300l-10 10h-180l-10 10v70l10 10h180l10 10v180z" />
    <glyph glyph-name="bullet" unicode="&#x2022;" horiz-adv-x="390" 
d="M310 260v-10l-110 -110h-10l-110 110v10l110 110h10z" />
    <glyph glyph-name="ellipsis" unicode="&#x2026;" horiz-adv-x="720" 
d="M200 10l-10 -10h-100l-10 10v100l10 10h100l10 -10v-100zM420 10l-10 -10h-100l-10 10v100l10 10h100l10 -10v-100zM640 10l-10 -10h-100l-10 10v100l10 10h100l10 -10v-100z" />
    <glyph glyph-name="perthousand" unicode="&#x2030;" horiz-adv-x="1150" 
d="M940 -10q-80 0 -120 60h-10q-40 -60 -120 -60q-86 0 -128 51.5t-42 138.5t42 138.5t128 51.5q80 0 120 -60h10q40 60 120 60q86 0 128 -51.5t42 -138.5t-42 -138.5t-128 -51.5zM210 330q-86 0 -128 51.5t-42 138.5t42 138.5t128 51.5t128 -51.5t42 -138.5t-42 -138.5
t-128 -51.5zM130 520q0 -55 18.5 -82.5t61.5 -27.5t61.5 27.5t18.5 82.5t-18.5 82.5t-61.5 27.5t-61.5 -27.5t-18.5 -82.5zM610 180q0 -55 18.5 -82.5t61.5 -27.5t61.5 27.5t18.5 82.5t-18.5 82.5t-61.5 27.5t-61.5 -27.5t-18.5 -82.5zM860 180q0 -55 18.5 -82.5t61.5 -27.5
t61.5 27.5t18.5 82.5t-18.5 82.5t-61.5 27.5t-61.5 -27.5t-18.5 -82.5zM680 620l-400 -610l-10 -10h-40l-10 10v70l400 610l10 10h40l10 -10v-70z" />
    <glyph glyph-name="guilsinglleft" unicode="&#x2039;" horiz-adv-x="440" 
d="M360 40l-10 -10h-80l-20 10l-160 160l-10 20v60l10 20l160 160l20 10h80l10 -10v-30l-180 -170v-20l180 -170v-30z" />
    <glyph glyph-name="guilsinglright" unicode="&#x203a;" horiz-adv-x="440" 
d="M90 30l-10 10v30l180 170v20l-180 170v30l10 10h80l20 -10l160 -160l10 -20v-60l-10 -20l-160 -160l-20 -10h-80z" />
    <glyph glyph-name="fraction" unicode="&#x2044;" horiz-adv-x="620" 
d="M540 620l-400 -610l-10 -10h-40l-10 10v70l400 610l10 10h40l10 -10v-70z" />
    <glyph glyph-name="Euro" unicode="&#x20ac;" horiz-adv-x="710" 
d="M210 230q9 -55 58.5 -102.5t131.5 -47.5q74 0 114.5 29.5t55.5 90.5l10 10h80l10 -10q-15 -103 -85.5 -156.5t-184.5 -53.5q-113 0 -190.5 64t-99.5 176l-10 10h-70l-10 10v60l10 10h60l10 10v40l-10 10h-60l-10 10v60l10 10h70l10 10q15 107 93.5 173.5t196.5 66.5
q114 0 184.5 -53.5t85.5 -156.5l-10 -10h-80l-10 10q-15 61 -55.5 90.5t-114.5 29.5q-46 0 -82.5 -14.5t-58 -38.5t-33.5 -48t-16 -49l10 -10h240l10 -10v-60l-10 -10h-250l-10 -10v-40l10 -10h210l10 -10v-60l-10 -10h-200z" />
    <glyph glyph-name="uni2117" unicode="&#x2117;" horiz-adv-x="840" 
d="M530 430q0 22 -14 36t-36 14h-120l-10 -10v-80l10 -10h120q22 0 36 14t14 36zM480 310h-120l-10 -10v-140l-10 -10h-60l-10 10v380l10 10h200q61 0 95.5 -30.5t34.5 -89.5t-34.5 -89.5t-95.5 -30.5zM140 350q0 -120 80 -200t200 -80t200 80t80 200t-80 200t-200 80
t-200 -80t-80 -200zM60 350q0 150 105 255t255 105t255 -105t105 -255t-105 -255t-255 -105t-255 105t-105 255z" />
    <glyph glyph-name="trademark" unicode="&#x2122;" horiz-adv-x="830" 
d="M20 690l10 10h290l10 -10v-40l-10 -10h-100l-10 -10v-280l-10 -10h-50l-10 10v280l-10 10h-100l-10 10v40zM600 340h-50l-10 10l-80 200h-10v-200l-10 -10h-50l-10 10v340l10 10h70l10 -10l100 -250h10l100 250l10 10h70l10 -10v-340l-10 -10h-50l-10 10v200h-10
l-80 -200z" />
    <glyph glyph-name="Omega" unicode="&#x2126;" horiz-adv-x="760" 
d="M200 90v10q-84 84 -117 143t-33 157q0 152 90.5 231t239.5 79t239.5 -79t90.5 -231q0 -98 -33 -157t-117 -143v-10h120l10 -10v-70l-10 -10h-230l-10 10v80l10 20q47 47 68.5 70.5t47 60t35 71t9.5 78.5q0 116 -60.5 173t-169.5 57t-169.5 -57t-60.5 -173
q0 -44 9.5 -78.5t35 -71t47 -60t68.5 -70.5l10 -20v-80l-10 -10h-230l-10 10v70l10 10h120z" />
    <glyph glyph-name="arrowleft" unicode="&#x2190;" horiz-adv-x="860" 
d="M330 500h80l10 -10v-10l-180 -180v-10h530l10 -10v-60l-10 -10h-530v-10l180 -180v-10l-10 -10h-80l-20 10l-230 230v20l230 230z" />
    <glyph glyph-name="arrowup" unicode="&#x2191;" horiz-adv-x="660" 
d="M580 450v-80l-10 -10h-10l-180 180h-10v-530l-10 -10h-60l-10 10v530h-10l-180 -180h-10l-10 10v80l10 20l230 230h20l230 -230z" />
    <glyph glyph-name="arrowright" unicode="&#x2192;" horiz-adv-x="860" 
d="M450 500h80l20 -10l230 -230v-20l-230 -230l-20 -10h-80l-10 10v10l180 180v10h-530l-10 10v60l10 10h530v10l-180 180v10z" />
    <glyph glyph-name="arrowdown" unicode="&#x2193;" horiz-adv-x="660" 
d="M580 330v-80l-10 -20l-230 -230h-20l-230 230l-10 20v80l10 10h10l180 -180h10v530l10 10h60l10 -10v-530h10l180 180h10z" />
    <glyph glyph-name="arrowboth" unicode="&#x2194;" horiz-adv-x="1060" 
d="M730 0h-80l-10 10v10l180 180v10h-580v-10l180 -180v-10l-10 -10h-80l-20 10l-230 230v20l230 230l20 10h80l10 -10v-10l-180 -180v-10h580v10l-180 180v10l10 10h80l20 -10l230 -230v-20l-230 -230z" />
    <glyph glyph-name="arrowupdn" unicode="&#x2195;" horiz-adv-x="660" 
d="M80 50v80l10 10h10l180 -180h10v580h-10l-180 -180h-10l-10 10v80l10 20l230 230h20l230 -230l10 -20v-80l-10 -10h-10l-180 180h-10v-580h10l180 180h10l10 -10v-80l-10 -20l-230 -230h-20l-230 230z" />
    <glyph glyph-name="uni2196" unicode="&#x2196;" horiz-adv-x="690" 
d="M440 690l50 -50v-10l-10 -10h-250v-10l380 -380v-10l-50 -50h-10l-380 380h-10v-250l-10 -10h-10l-50 50l-10 20v320l20 20h320z" />
    <glyph glyph-name="uni2197" unicode="&#x2197;" horiz-adv-x="690" 
d="M200 640l50 50l20 10h320l20 -20v-320l-10 -20l-50 -50h-10l-10 10v250h-10l-380 -380h-10l-50 50v10l380 380v10h-250l-10 10v10z" />
    <glyph glyph-name="uni2198" unicode="&#x2198;" horiz-adv-x="690" 
d="M250 10l-50 50v10l10 10h250v10l-380 380v10l50 50h10l380 -380h10v250l10 10h10l50 -50l10 -20v-320l-20 -20h-320z" />
    <glyph glyph-name="uni2199" unicode="&#x2199;" horiz-adv-x="690" 
d="M490 60l-50 -50l-20 -10h-320l-20 20v320l10 20l50 50h10l10 -10v-250h10l380 380h10l50 -50v-10l-380 -380v-10h250l10 -10v-10z" />
    <glyph glyph-name="partialdiff" unicode="&#x2202;" 
d="M390 470h10q-9 65 -49 112.5t-121 47.5q-27 0 -52 -5t-36 -10l-12 -5l-10 10v60l10 10q40 20 100 20q290 0 290 -460q0 -125 -61.5 -192.5t-168.5 -67.5q-98 0 -164 66t-66 194q0 119 61 189.5t159 70.5q36 0 63.5 -10t36.5 -20zM420 250q0 170 -130 170t-130 -170
t130 -170t130 170z" />
    <glyph glyph-name="Delta" unicode="&#x2206;" 
d="M40 0l-10 10v70l200 610l10 10h100l10 -10l200 -610v-70l-10 -10h-500zM280 560l-150 -460v-10h320v10l-150 460h-20z" />
    <glyph glyph-name="product" unicode="&#x220f;" 
d="M450 -190l-10 -10h-80l-10 10v790l-10 10h-100l-10 -10v-790l-10 -10h-80l-10 10v790l-10 10h-70l-10 10v70l10 10h480l10 -10v-70l-10 -10h-70l-10 -10v-790z" />
    <glyph glyph-name="summation" unicode="&#x2211;" 
d="M530 -30l10 -10v-150l-10 -10h-480l-10 10v80l10 20l240 340v10l-230 330l-10 20v80l10 10h460l10 -10v-150l-10 -10h-80l-10 10v60l-10 10h-250v-10l200 -290l10 -20v-70l-10 -20l-210 -300v-10h270l10 10v60l10 10h80z" />
    <glyph glyph-name="minus" unicode="&#x2212;" horiz-adv-x="560" 
d="M500 220l-10 -10h-420l-10 10v70l10 10h420l10 -10v-70z" />
    <glyph glyph-name="uni2215" unicode="&#x2215;" horiz-adv-x="620" 
d="M540 620l-400 -610l-10 -10h-40l-10 10v70l400 610l10 10h40l10 -10v-70z" />
    <glyph glyph-name="uni2219" unicode="&#x2219;" horiz-adv-x="280" 
d="M200 210l-10 -10h-100l-10 10v100l10 10h100l10 -10v-100z" />
    <glyph glyph-name="radical" unicode="&#x221a;" 
d="M220 150l160 540l10 10h150l10 -10v-60l-10 -10h-80l-10 -10l-180 -600l-10 -10h-90l-10 10l-120 410v70l10 10h60l10 -10l90 -340h10z" />
    <glyph glyph-name="infinity" unicode="&#x221e;" horiz-adv-x="710" 
d="M360 230h-10q-29 -29 -48 -45.5t-54.5 -35.5t-67.5 -19q-61 0 -100.5 35.5t-39.5 94.5t39.5 94.5t100.5 35.5q32 0 67.5 -19t54.5 -35.5t48 -45.5h10q29 29 48 45.5t54.5 35.5t67.5 19q61 0 100.5 -35.5t39.5 -94.5t-39.5 -94.5t-100.5 -35.5q-32 0 -67.5 19t-54.5 35.5
t-48 45.5zM180 360q-45 0 -72.5 -27.5t-27.5 -72.5t27.5 -72.5t72.5 -27.5q28 0 58 16t47 31t45 43v20q-28 28 -45 43t-47 31t-58 16zM530 360q-28 0 -58 -16t-47 -31t-45 -43v-20q28 -28 45 -43t47 -31t58 -16q45 0 72.5 27.5t27.5 72.5t-27.5 72.5t-72.5 27.5z" />
    <glyph glyph-name="integral" unicode="&#x222b;" 
d="M210 -30l80 560q14 98 60.5 134t129.5 36h40l10 -10l-10 -70l-10 -10h-30q-42 0 -62.5 -15.5t-27.5 -64.5l-80 -560q-14 -98 -60.5 -134t-129.5 -36h-20l-10 10l10 70l10 10h10q42 0 62.5 15.5t27.5 64.5z" />
    <glyph glyph-name="approxequal" unicode="&#x2248;" 
d="M250 330q-19 19 -28.5 27.5t-23.5 15.5t-28 7q-28 0 -39 -20t-11 -60l-10 -10h-60l-10 10q0 81 36 130.5t114 49.5q32 0 61.5 -13t43.5 -24.5t35 -32.5q19 -19 28.5 -27.5t23.5 -15.5t28 -7q28 0 39 20t11 60l10 10h60l10 -10q0 -81 -36 -130.5t-114 -49.5
q-32 0 -61.5 13t-43.5 24.5t-35 32.5zM250 90q-19 19 -28.5 27.5t-23.5 15.5t-28 7q-28 0 -39 -20t-11 -60l-10 -10h-60l-10 10q0 81 36 130.5t114 49.5q32 0 61.5 -13t43.5 -24.5t35 -32.5q19 -19 28.5 -27.5t23.5 -15.5t28 -7q28 0 39 20t11 60l10 10h60l10 -10
q0 -81 -36 -130.5t-114 -49.5q-32 0 -61.5 13t-43.5 24.5t-35 32.5z" />
    <glyph glyph-name="notequal" unicode="&#x2260;" 
d="M410 480l10 10h20l10 -10v-20l-40 -60v-10h90l10 -10v-70l-10 -10h-150l-10 -10l-50 -80v-10h210l10 -10v-70l-10 -10h-270l-10 -10l-50 -80l-10 -10h-20l-10 10v20l40 60v10h-90l-10 10v70l10 10h150l10 10l50 80v10h-210l-10 10v70l10 10h270l10 10z" />
    <glyph glyph-name="lessequal" unicode="&#x2264;" 
d="M510 10l-10 -10h-430l-10 10v70l10 10h430l10 -10v-70zM60 370l10 10l330 120h100l10 -10v-40l-10 -10l-320 -110v-20l320 -110l10 -10v-40l-10 -10h-100l-330 120l-10 10v100z" />
    <glyph glyph-name="greaterequal" unicode="&#x2265;" 
d="M70 0l-10 10v70l10 10h430l10 -10v-70l-10 -10h-430zM500 380l10 -10v-100l-10 -10l-330 -120h-100l-10 10v40l10 10l320 110v20l-320 110l-10 10v40l10 10h100z" />
    <glyph glyph-name="lozenge" unicode="&#x25ca;" 
d="M530 380v-60l-190 -310l-10 -10h-80l-10 10l-190 310v60l190 310l10 10h80l10 -10zM150 360v-20l130 -220h20l130 220v20l-130 220h-20z" />
    <glyph glyph-name="uniFB00" unicode="&#xfb00;" horiz-adv-x="680" 
d="M650 420l-10 -10h-100l-10 -10v-390l-10 -10h-80l-10 10v390l-10 10h-190l-10 -10v-390l-10 -10h-80l-10 10v390l-10 10h-70l-10 10v70l10 10h70l10 10v40q0 63 41 96.5t99 33.5h80l10 -10v-70l-10 -10h-80q-40 0 -40 -40v-40l10 -10h190l10 10v40q0 63 41 96.5t99 33.5
h80l10 -10v-70l-10 -10h-80q-40 0 -40 -40v-40l10 -10h100l10 -10v-70z" />
    <glyph glyph-name="fi" unicode="&#xfb01;" horiz-adv-x="590" 
d="M530 590l-10 -10h-80l-10 10v80l10 10h80l10 -10v-80zM530 10l-10 -10h-80l-10 10v390l-10 10h-190l-10 -10v-390l-10 -10h-80l-10 10v390l-10 10h-70l-10 10v70l10 10h70l10 10v40q0 63 41 96.5t99 33.5h80l10 -10v-70l-10 -10h-80q-40 0 -40 -40v-40l10 -10h290l10 -10
v-480z" />
    <glyph glyph-name="fl" unicode="&#xfb02;" horiz-adv-x="590" 
d="M530 10l-10 -10h-80l-10 10v390l-10 10h-190l-10 -10v-390l-10 -10h-80l-10 10v390l-10 10h-70l-10 10v70l10 10h70l10 10v40q0 63 41 96.5t99 33.5h80l10 -10v-70l-10 -10h-80q-40 0 -40 -40v-40l10 -10h190l10 10v180l10 10h80l10 -10v-680z" />
    <glyph glyph-name="uniFB03" unicode="&#xfb03;" horiz-adv-x="900" 
d="M840 10l-10 -10h-80l-10 10v390l-10 10h-190l-10 -10v-390l-10 -10h-80l-10 10v390l-10 10h-190l-10 -10v-390l-10 -10h-80l-10 10v390l-10 10h-70l-10 10v70l10 10h70l10 10v40q0 63 41 96.5t99 33.5h80l10 -10v-70l-10 -10h-80q-40 0 -40 -40v-40l10 -10h190l10 10v40
q0 63 41 96.5t99 33.5h80l10 -10v-70l-10 -10h-80q-40 0 -40 -40v-40l10 -10h290l10 -10v-480zM840 590l-10 -10h-80l-10 10v80l10 10h80l10 -10v-80z" />
    <glyph glyph-name="uniFB04" unicode="&#xfb04;" horiz-adv-x="900" 
d="M840 10l-10 -10h-80l-10 10v390l-10 10h-190l-10 -10v-390l-10 -10h-80l-10 10v390l-10 10h-190l-10 -10v-390l-10 -10h-80l-10 10v390l-10 10h-70l-10 10v70l10 10h70l10 10v40q0 63 41 96.5t99 33.5h80l10 -10v-70l-10 -10h-80q-40 0 -40 -40v-40l10 -10h190l10 10v40
q0 63 41 96.5t99 33.5h80l10 -10v-70l-10 -10h-80q-40 0 -40 -40v-40l10 -10h190l10 10v180l10 10h80l10 -10v-680z" />
    <glyph glyph-name="zero.osf" horiz-adv-x="540" 
d="M30 250q0 115 65 187.5t175 72.5t175 -72.5t65 -187.5t-65 -187.5t-175 -72.5t-175 72.5t-65 187.5zM130 250q0 -71 37.5 -120.5t102.5 -49.5q66 0 103 46.5t37 123.5t-37 123.5t-103 46.5t-103 -46.5t-37 -123.5z" />
    <glyph glyph-name="one.osf" horiz-adv-x="310" 
d="M240 0h-80l-10 10v360h-10l-70 -70h-30l-10 10v70l110 110l20 10h80l10 -10v-480z" />
    <glyph glyph-name="two.osf" horiz-adv-x="520" 
d="M490 10l-10 -10h-430l-10 10v70l10 20l200 100q65 32 92.5 60t27.5 70q0 41 -26.5 65.5t-83.5 24.5q-61 0 -85.5 -26.5t-24.5 -63.5l-10 -10h-80l-10 10q0 75 52.5 127.5t157.5 52.5t157.5 -52.5t52.5 -127.5q0 -68 -45 -111t-125 -79l-90 -40v-10h270l10 -10v-70z" />
    <glyph glyph-name="three.osf" horiz-adv-x="520" 
d="M500 30q0 -111 -68 -175.5t-182 -64.5q-103 0 -166.5 57.5t-63.5 142.5l10 10h80l10 -10q0 -42 34 -76t96 -34q73 0 111.5 40.5t38.5 109.5q0 67 -34.5 103.5t-95.5 36.5q-22 0 -42 -7.5t-29 -14.5l-9 -8h-30l-10 10v70l190 180v10h-280l-10 10v70l10 10h390l10 -10v-80
l-10 -20l-150 -140v-10q6 1 20 1q70 0 125 -52t55 -159z" />
    <glyph glyph-name="four.osf" horiz-adv-x="530" 
d="M470 -190l-10 -10h-80l-10 10v180l-10 10h-330l-10 10v80l10 20l320 380l20 10h90l10 -10v-680zM370 100v270h-10l-230 -270v-10h230z" />
    <glyph glyph-name="five.osf" horiz-adv-x="560" 
d="M520 50q0 -132 -62 -196t-178 -64q-109 0 -165.5 53t-64.5 147l10 10h80l10 -10q9 -54 35.5 -82t94.5 -28q140 0 140 160q0 73 -29.5 111.5t-100.5 38.5q-28 0 -51.5 -8t-37.5 -20t-24 -24t-13 -20l-4 -8l-20 -10l-70 10l-10 10l20 370l10 10h390l10 -10v-70l-10 -10
h-300l-10 -10l-10 -180h10q2 2 5 6.5t15.5 14.5t27 18t39.5 14.5t53 6.5q106 0 158 -65.5t52 -164.5z" />
    <glyph glyph-name="six.osf" horiz-adv-x="560" 
d="M40 340q0 201 66.5 285.5t193.5 84.5q91 0 147 -44t63 -126l-10 -10h-80l-10 10q-7 44 -36.5 62t-83.5 18q-140 0 -140 -210h10q5 6 14 14t45.5 22t80.5 14q104 0 162 -62t58 -168q0 -112 -62 -176t-168 -64q-121 0 -185.5 79t-64.5 271zM420 220q0 73 -29.5 111.5
t-100.5 38.5q-68 0 -104 -36t-36 -104q0 -72 37 -111t93 -39q68 0 104 36t36 104z" />
    <glyph glyph-name="seven.osf" horiz-adv-x="500" 
d="M470 410l-290 -600l-10 -10h-50l-10 10v80l250 510v10h-320l-10 10v70l10 10h420l10 -10v-80z" />
    <glyph glyph-name="eight.osf" horiz-adv-x="540" 
d="M510 200q0 -88 -63 -149t-177 -61t-177 61t-63 149q0 67 30.5 108.5t69.5 61.5v10q-80 53 -80 140q0 81 56.5 135.5t163.5 54.5t163.5 -54.5t56.5 -135.5q0 -87 -80 -140v-10q39 -20 69.5 -61.5t30.5 -108.5zM390 520q0 42 -29 71t-91 29t-91 -29t-29 -71q0 -48 31 -79
t89 -31t89 31t31 79zM410 200q0 57 -34.5 93.5t-105.5 36.5t-105.5 -36.5t-34.5 -93.5q0 -50 35 -85t105 -35t105 35t35 85z" />
    <glyph glyph-name="nine.osf" horiz-adv-x="560" 
d="M520 170q0 -204 -64 -292t-196 -88q-84 0 -138.5 44.5t-61.5 125.5l10 10h80l10 -10q13 -80 110 -80q40 0 68.5 18t41.5 41t20.5 59t8.5 55t1 47h-10q-5 -6 -14 -14t-45.5 -22t-80.5 -14q-98 0 -159 63t-61 167q0 109 64.5 169.5t165.5 60.5q126 0 188 -76.5t62 -263.5z
M140 280q0 -67 34.5 -103.5t95.5 -36.5q68 0 104 36t36 104q0 72 -38 106t-102 34q-61 0 -95.5 -36.5t-34.5 -103.5z" />
    <glyph glyph-name="numbersign.tf" 
d="M260 80l30 110l-10 10h-70l-10 -10l-50 -180l-10 -10h-50l-10 10v70l30 110l-10 10h-70l-10 10v60l10 10h100l10 10l30 120l-10 10h-80l-10 10v60l10 10h110l10 10l50 180l10 10h50l10 -10v-70l-30 -110l10 -10h70l10 10l50 180l10 10h50l10 -10v-70l-30 -110l10 -10h70
l10 -10v-60l-10 -10h-100l-10 -10l-30 -120l10 -10h80l10 -10v-60l-10 -10h-110l-10 -10l-50 -180l-10 -10h-50l-10 10v70zM240 280h70l10 10l30 120l-10 10h-70l-10 -10l-30 -120z" />
    <glyph glyph-name="dollar.tf" 
d="M330 -80l-10 -10h-60l-10 10v60l-10 10q-110 15 -160 72.5t-50 157.5l10 10h80l10 -10q0 -60 24 -96.5t86 -43.5l10 10v220l-10 10q-100 23 -150 71t-50 129q0 74 47 125t153 65l10 10v60l10 10h60l10 -10v-60l10 -10q88 -7 139 -66t51 -144l-10 -10h-80l-10 10
q0 47 -23.5 80t-66.5 40l-10 -10v-200l10 -10q210 -42 210 -210q0 -23 -5.5 -46t-20 -49t-37 -46.5t-60.5 -36.5t-87 -22l-10 -10v-60zM450 190q0 92 -110 110l-10 -10v-200l10 -10q53 8 81.5 36.5t28.5 73.5zM140 520q0 -83 100 -100l10 10v180l-10 10q-54 -7 -77 -35.5
t-23 -64.5z" />
    <glyph glyph-name="plus.tf" 
d="M530 220l-10 -10h-170l-10 -10v-170l-10 -10h-70l-10 10v170l-10 10h-170l-10 10v70l10 10h170l10 10v170l10 10h70l10 -10v-170l10 -10h170l10 -10v-70z" />
    <glyph glyph-name="zero.tf" 
d="M40 350q0 191 68 275.5t182 84.5t182 -84.5t68 -275.5t-68 -275.5t-182 -84.5t-182 84.5t-68 275.5zM140 350q0 -270 150 -270t150 270t-150 270t-150 -270z" />
    <glyph glyph-name="one.tf" 
d="M50 10v70l10 10h190l10 10v470h-10l-130 -130h-20l-10 10v80l160 160l20 10h80l10 -10v-590l10 -10h160l10 -10v-70l-10 -10h-470z" />
    <glyph glyph-name="two.tf" 
d="M530 10l-10 -10h-450l-10 10v80l10 20l200 180q83 75 111.5 114.5t28.5 95.5q0 51 -29 85.5t-91 34.5q-130 0 -130 -130l-10 -10h-80l-10 10q0 100 60 160t170 60t165 -61t55 -139q0 -59 -21.5 -114.5t-88.5 -115.5l-200 -180v-10h320l10 -10v-70z" />
    <glyph glyph-name="three.tf" 
d="M530 230q0 -111 -68 -175.5t-182 -64.5q-103 0 -166.5 57.5t-63.5 142.5l10 10h80l10 -10q0 -42 34 -76t96 -34q73 0 111.5 40.5t38.5 109.5q0 67 -34.5 103.5t-95.5 36.5q-22 0 -42 -7.5t-29 -14.5l-9 -8h-30l-10 10v70l190 180v10h-280l-10 10v70l10 10h390l10 -10v-80
l-10 -20l-150 -140v-10q6 1 20 1q70 0 125 -52t55 -159z" />
    <glyph glyph-name="four.tf" 
d="M490 10l-10 -10h-80l-10 10v180l-10 10h-330l-10 10v80l10 20l320 380l20 10h90l10 -10v-680zM390 300v270h-10l-230 -270v-10h230z" />
    <glyph glyph-name="five.tf" 
d="M540 250q0 -132 -62 -196t-178 -64q-109 0 -165.5 53t-64.5 147l10 10h80l10 -10q9 -54 35.5 -82t94.5 -28q140 0 140 160q0 73 -29.5 111.5t-100.5 38.5q-28 0 -51.5 -8t-37.5 -20t-24 -24t-13 -20l-4 -8l-20 -10l-70 10l-10 10l20 370l10 10h390l10 -10v-70l-10 -10
h-300l-10 -10l-10 -180h10q2 2 5 6.5t15.5 14.5t27 18t39.5 14.5t53 6.5q106 0 158 -65.5t52 -164.5z" />
    <glyph glyph-name="six.tf" 
d="M50 340q0 201 66.5 285.5t193.5 84.5q91 0 147 -44t63 -126l-10 -10h-80l-10 10q-7 44 -36.5 62t-83.5 18q-140 0 -140 -210h10q5 6 14 14t45.5 22t80.5 14q104 0 162 -62t58 -168q0 -112 -62 -176t-168 -64q-121 0 -185.5 79t-64.5 271zM430 220q0 73 -29.5 111.5
t-100.5 38.5q-68 0 -104 -36t-36 -104q0 -72 37 -111t93 -39q68 0 104 36t36 104z" />
    <glyph glyph-name="seven.tf" 
d="M510 610l-290 -600l-10 -10h-50l-10 10v80l250 510v10h-320l-10 10v70l10 10h420l10 -10v-80z" />
    <glyph glyph-name="eight.tf" 
d="M530 200q0 -88 -63 -149t-177 -61t-177 61t-63 149q0 67 30.5 108.5t69.5 61.5v10q-80 53 -80 140q0 81 56.5 135.5t163.5 54.5t163.5 -54.5t56.5 -135.5q0 -87 -80 -140v-10q39 -20 69.5 -61.5t30.5 -108.5zM410 520q0 42 -29 71t-91 29t-91 -29t-29 -71q0 -48 31 -79
t89 -31t89 31t31 79zM430 200q0 57 -34.5 93.5t-105.5 36.5t-105.5 -36.5t-34.5 -93.5q0 -50 35 -85t105 -35t105 35t35 85z" />
    <glyph glyph-name="nine.tf" 
d="M530 370q0 -204 -64 -292t-196 -88q-84 0 -138.5 44.5t-61.5 125.5l10 10h80l10 -10q13 -80 110 -80q40 0 68.5 18t41.5 41t20.5 59t8.5 55t1 47h-10q-5 -6 -14 -14t-45.5 -22t-80.5 -14q-98 0 -159 63t-61 167q0 109 64.5 169.5t165.5 60.5q126 0 188 -76.5t62 -263.5z
M150 480q0 -67 34.5 -103.5t95.5 -36.5q68 0 104 36t36 104q0 72 -38 106t-102 34q-61 0 -95.5 -36.5t-34.5 -103.5z" />
    <glyph glyph-name="less.tf" 
d="M70 280l10 20l390 200h20l10 -10v-60l-10 -20l-310 -150v-20l310 -150l10 -20v-60l-10 -10h-20l-390 200l-10 20v60z" />
    <glyph glyph-name="equal.tf" 
d="M500 310l-10 -10h-400l-10 10v70l10 10h400l10 -10v-70zM500 120l-10 -10h-400l-10 10v70l10 10h400l10 -10v-70z" />
    <glyph glyph-name="greater.tf" 
d="M500 300l10 -20v-60l-10 -20l-390 -200h-20l-10 10v60l10 20l310 150v20l-310 150l-10 20v60l10 10h20z" />
    <glyph glyph-name="asciitilde.tf" 
d="M250 210q-19 19 -28.5 27.5t-23.5 15.5t-28 7q-28 0 -39 -20t-11 -60l-10 -10h-60l-10 10q0 81 36 130.5t114 49.5q32 0 61.5 -13t43.5 -24.5t35 -32.5q19 -19 28.5 -27.5t23.5 -15.5t28 -7q28 0 39 20t11 60l10 10h60l10 -10q0 -81 -36 -130.5t-114 -49.5
q-32 0 -61.5 13t-43.5 24.5t-35 32.5z" />
    <glyph glyph-name="cent.tf" 
d="M160 250q0 -79 28.5 -119t61.5 -51l10 10v320l-10 10q-33 -11 -61.5 -51t-28.5 -119zM340 410v-320l10 -10q53 13 70 80l10 10h80l10 -10q-7 -75 -57.5 -118t-112.5 -52l-10 -10v-40l-10 -10h-60l-10 10v40l-10 10q-30 4 -60 19t-61 43t-50 79.5t-19 118.5t19 118.5
t50 79.5t61 43t60 19l10 10v40l10 10h60l10 -10v-40l10 -10q62 -9 112.5 -52t57.5 -118l-10 -10h-80l-10 10q-17 67 -70 80z" />
    <glyph glyph-name="sterling.tf" 
d="M450 290l-10 -10h-200l-10 -10v-80q0 -50 -40 -90v-10h350l10 -10v-70l-10 -10h-490l-10 10v70l10 10h10q70 0 70 90v90l-10 10h-60l-10 10v60l10 10h60l10 10v130q0 210 200 210t200 -210l-10 -10h-80l-10 10q0 63 -21 91.5t-79 28.5t-79 -28.5t-21 -91.5v-130l10 -10
h200l10 -10v-60z" />
    <glyph glyph-name="currency.tf" 
d="M30 250q0 80 40 140v10l-60 60v10l60 60h10l60 -60h10q60 40 140 40t140 -40h10l60 60h10l60 -60v-10l-60 -60v-10q40 -60 40 -140t-40 -140v-10l60 -60v-10l-60 -60h-10l-60 60h-10q-60 -40 -140 -40t-140 40h-10l-60 -60h-10l-60 60v10l60 60v10q-40 60 -40 140z
M130 250q0 -70 44 -120t116 -50t116 50t44 120t-44 120t-116 50t-116 -50t-44 -120z" />
    <glyph glyph-name="yen.tf" 
d="M340 120v-110l-10 -10h-80l-10 10v110l-10 10h-110l-10 10v60l10 10h110l10 10v20l-20 40l-20 10h-110l-10 10v60l10 10h80v10l-120 240v70l10 10h50l20 -10l150 -320h20l150 320l20 10h50l10 -10v-70l-120 -240v-10h80l10 -10v-60l-10 -10h-110l-20 -10l-20 -40v-20
l10 -10h110l10 -10v-60l-10 -10h-110z" />
    <glyph glyph-name="section.tf" 
d="M130 290q0 -24 9.5 -43t23 -31.5t40.5 -24.5t49 -19l62 -20l66 -22h10q60 15 60 90q0 24 -9.5 43t-23 31.5t-40.5 24.5t-49 19l-62 20l-66 22h-10q-60 -15 -60 -90zM470 90v-10q50 -50 50 -110q0 -85 -55 -132.5t-165 -47.5q-111 0 -175.5 51t-64.5 159l10 10h80l10 -10
q0 -63 30.5 -91.5t109.5 -28.5q66 0 93 22t27 68q0 38 -40 62t-97.5 40t-115 37t-97.5 66.5t-40 114.5q0 90 80 130v10q-50 50 -50 110q0 78 57 124t173 46q230 0 230 -210l-10 -10h-80l-10 10q0 63 -30.5 91.5t-109.5 28.5q-65 0 -92.5 -20t-27.5 -60q0 -38 40 -62
t97.5 -40t115 -37t97.5 -66.5t40 -114.5q0 -90 -80 -130z" />
    <glyph glyph-name="logicalnot.tf" 
d="M500 100l-10 -10h-70l-10 10v100l-10 10h-330l-10 10v70l10 10h420l10 -10v-190z" />
    <glyph glyph-name="plusminus.tf" 
d="M520 290l-10 -10h-160l-10 -10v-110l-10 -10h-70l-10 10v110l-10 10h-160l-10 10v70l10 10h160l10 10v110l10 10h70l10 -10v-110l10 -10h160l10 -10v-70zM520 10l-10 -10h-430l-10 10v70l10 10h430l10 -10v-70z" />
    <glyph glyph-name="multiply.tf" 
d="M520 80l-50 -50h-10l-160 160h-10l-160 -160h-10l-50 50v10l160 160v10l-160 160v10l50 50h10l160 -160h10l160 160h10l50 -50v-10l-160 -160v-10l160 -160v-10z" />
    <glyph glyph-name="divide.tf" 
d="M530 220l-10 -10h-460l-10 10v70l10 10h460l10 -10v-70zM350 20l-10 -10h-100l-10 10v100l10 10h100l10 -10v-100zM350 390l-10 -10h-100l-10 10v100l10 10h100l10 -10v-100z" />
    <glyph glyph-name="florin.tf" 
d="M400 560l-10 -50l10 -10h130l10 -10v-60l-10 -10h-150l-10 -10l-90 -450q-16 -82 -58.5 -121t-141.5 -39h-10l-10 10v60l10 10h20q42 0 62 19.5t28 60.5l90 450l-10 10h-70l-10 10v60l10 10h90l10 10l10 50q15 75 56.5 107.5t123.5 32.5h20l10 -10v-60l-10 -10h-30
q-32 0 -47.5 -12t-22.5 -48z" />
    <glyph glyph-name="Euro.tf" 
d="M370 240l-10 -10h-160l-10 -10q8 -67 39 -103.5t101 -36.5q56 0 89 35t41 85l10 10h80l10 -10q-8 -92 -71 -151t-159 -59q-110 0 -171 61t-69 169l-10 10h-50l-10 10v60l10 10h40l10 10v40l-10 10h-40l-10 10v60l10 10h50l10 10q8 113 67 181.5t173 68.5q104 0 163 -55.5
t67 -154.5l-10 -10h-80l-10 10q-8 58 -37.5 89t-92.5 31q-70 0 -101 -42t-39 -118l10 -10h200l10 -10v-60l-10 -10h-210l-10 -10v-40l10 -10h170l10 -10v-60z" />
    <glyph glyph-name="minus.tf" 
d="M510 220l-10 -10h-420l-10 10v70l10 10h420l10 -10v-70z" />
    <glyph glyph-name="zero.tosf" 
d="M40 250q0 114 69.5 187t180.5 73t180.5 -73t69.5 -187t-69.5 -187t-180.5 -73t-180.5 73t-69.5 187zM140 250q0 -75 41.5 -122.5t108.5 -47.5t108.5 47.5t41.5 122.5t-41.5 122.5t-108.5 47.5t-108.5 -47.5t-41.5 -122.5z" />
    <glyph glyph-name="one.tosf" 
d="M70 10v70l10 10h180l10 10v270h-10l-100 -100h-30l-10 10v70l140 140l20 10h80l10 -10v-390l10 -10h150l10 -10v-70l-10 -10h-450z" />
    <glyph glyph-name="two.tosf" 
d="M520 10l-10 -10h-430l-10 10v70l10 20l200 100q65 32 92.5 60t27.5 70q0 41 -26.5 65.5t-83.5 24.5q-61 0 -85.5 -26.5t-24.5 -63.5l-10 -10h-80l-10 10q0 75 52.5 127.5t157.5 52.5t157.5 -52.5t52.5 -127.5q0 -68 -45 -111t-125 -79l-90 -40v-10h270l10 -10v-70z" />
    <glyph glyph-name="three.tosf" 
d="M530 30q0 -111 -68 -175.5t-182 -64.5q-103 0 -166.5 57.5t-63.5 142.5l10 10h80l10 -10q0 -42 34 -76t96 -34q73 0 111.5 40.5t38.5 109.5q0 67 -34.5 103.5t-95.5 36.5q-22 0 -42 -7.5t-29 -14.5l-9 -8h-30l-10 10v70l190 180v10h-280l-10 10v70l10 10h390l10 -10v-80
l-10 -20l-150 -140v-10q6 1 20 1q70 0 125 -52t55 -159z" />
    <glyph glyph-name="four.tosf" 
d="M490 -190l-10 -10h-80l-10 10v180l-10 10h-330l-10 10v80l10 20l320 380l20 10h90l10 -10v-680zM390 100v270h-10l-230 -270v-10h230z" />
    <glyph glyph-name="five.tosf" 
d="M530 50q0 -132 -62 -196t-178 -64q-109 0 -165.5 53t-64.5 147l10 10h80l10 -10q9 -54 35.5 -82t94.5 -28q140 0 140 160q0 73 -29.5 111.5t-100.5 38.5q-28 0 -51.5 -8t-37.5 -20t-24 -24t-13 -20l-4 -8l-20 -10l-70 10l-10 10l20 370l10 10h390l10 -10v-70l-10 -10
h-300l-10 -10l-10 -180h10q2 2 5 6.5t15.5 14.5t27 18t39.5 14.5t53 6.5q106 0 158 -65.5t52 -164.5z" />
    <glyph glyph-name="six.tosf" 
d="M60 340q0 201 66.5 285.5t193.5 84.5q91 0 147 -44t63 -126l-10 -10h-80l-10 10q-7 44 -36.5 62t-83.5 18q-140 0 -140 -210h10q5 6 14 14t45.5 22t80.5 14q104 0 162 -62t58 -168q0 -112 -62 -176t-168 -64q-121 0 -185.5 79t-64.5 271zM440 220q0 73 -29.5 111.5
t-100.5 38.5q-68 0 -104 -36t-36 -104q0 -72 37 -111t93 -39q68 0 104 36t36 104z" />
    <glyph glyph-name="seven.tosf" 
d="M510 410l-290 -600l-10 -10h-50l-10 10v80l250 510v10h-320l-10 10v70l10 10h420l10 -10v-80z" />
    <glyph glyph-name="eight.tosf" 
d="M530 200q0 -88 -63 -149t-177 -61t-177 61t-63 149q0 67 30.5 108.5t69.5 61.5v10q-80 53 -80 140q0 81 56.5 135.5t163.5 54.5t163.5 -54.5t56.5 -135.5q0 -87 -80 -140v-10q39 -20 69.5 -61.5t30.5 -108.5zM410 520q0 42 -29 71t-91 29t-91 -29t-29 -71q0 -48 31 -79
t89 -31t89 31t31 79zM430 200q0 57 -34.5 93.5t-105.5 36.5t-105.5 -36.5t-34.5 -93.5q0 -50 35 -85t105 -35t105 35t35 85z" />
    <glyph glyph-name="nine.tosf" 
d="M530 170q0 -204 -64 -292t-196 -88q-84 0 -138.5 44.5t-61.5 125.5l10 10h80l10 -10q13 -80 110 -80q40 0 68.5 18t41.5 41t20.5 59t8.5 55t1 47h-10q-5 -6 -14 -14t-45.5 -22t-80.5 -14q-98 0 -159 63t-61 167q0 109 64.5 169.5t165.5 60.5q126 0 188 -76.5t62 -263.5z
M150 280q0 -67 34.5 -103.5t95.5 -36.5q68 0 104 36t36 104q0 72 -38 106t-102 34q-61 0 -95.5 -36.5t-34.5 -103.5z" />
    <glyph glyph-name="parenleft.case" horiz-adv-x="420" 
d="M340 -90l-10 -10h-20l-20 10l-86 86.5t-56 65t-39 57.5t-18 59t-10.5 74t-0.5 98t0.5 98t10.5 74t18 59t39 57.5t56 65l86 86.5l20 10h20l10 -10v-70l-64.5 -65t-42.5 -50.5t-30 -47.5t-14 -51t-8.5 -66.5t-0.5 -89.5t0.5 -89.5t8.5 -66.5t14 -51t30 -47.5t42.5 -50.5
l64.5 -65v-70z" />
    <glyph glyph-name="parenright.case" horiz-adv-x="420" 
d="M90 -100l-10 10v70l64.5 65t42.5 50.5t30 47.5t14 51t8.5 66.5t0.5 89.5t-0.5 89.5t-8.5 66.5t-14 51t-30 47.5t-42.5 50.5l-64.5 65v70l10 10h20l20 -10l67 -67t49.5 -53.5t38.5 -46.5t24 -41.5t18 -44t8 -49.5t5 -61.5v-76.5v-76.5t-5 -61.5t-8 -49.5t-18 -44
t-24 -41.5t-38.5 -46.5t-49.5 -53.5l-67 -67l-20 -10h-20z" />
    <glyph glyph-name="hyphen.case" horiz-adv-x="410" 
d="M350 320l-10 -10h-270l-10 10v70l10 10h270l10 -10v-70z" />
    <glyph glyph-name="at.case" horiz-adv-x="920" 
d="M460 480q-48 0 -74 -29.5t-26 -100.5t26 -100.5t74 -29.5q47 0 68.5 29t21.5 101t-21.5 101t-68.5 29zM550 530v20l10 10h80l10 -10v-290q0 -35 12.5 -47.5t37.5 -12.5q36 0 48 35t12 115q0 66 -18 122.5t-53 101t-94 70.5t-135 26q-143 0 -221.5 -92t-78.5 -228
q0 -141 77.5 -230.5t222.5 -89.5q100 0 160 40h20l10 -10v-70q-67 -50 -190 -50q-179 0 -289.5 114.5t-110.5 295.5t110.5 295.5t289.5 114.5t289.5 -114.5t110.5 -295.5q0 -116 -46 -173t-124 -57q-70 0 -110 60h-10q-14 -14 -25 -22.5t-37 -18t-58 -9.5q-81 0 -135.5 56.5
t-54.5 163.5q0 106 53 163t127 57q31 0 56 -10t34 -20l10 -10h10z" />
    <glyph glyph-name="bracketleft.case" horiz-adv-x="370" 
d="M290 -90l-10 -10h-190l-10 10v880l10 10h190l10 -10v-70l-10 -10h-90l-10 -10v-700l10 -10h90l10 -10v-70z" />
    <glyph glyph-name="bracketright.case" horiz-adv-x="370" 
d="M90 -100l-10 10v70l10 10h90l10 10v700l-10 10h-90l-10 10v70l10 10h190l10 -10v-880l-10 -10h-190z" />
    <glyph glyph-name="underscore.case" 
d="M540 10l-10 -10h-480l-10 10v70l10 10h480l10 -10v-70z" />
    <glyph glyph-name="braceleft.case" horiz-adv-x="440" 
d="M160 50v180q0 44 -16 62t-54 18l-10 10v60l10 10q38 0 54 18t16 62v180q0 72 43 111t107 39h40l10 -10v-70l-10 -10h-40q-50 0 -50 -60v-190q0 -38 -14 -65t-36 -35v-20q22 -8 36 -35t14 -65v-190q0 -60 50 -60h40l10 -10v-70l-10 -10h-40q-64 0 -107 39t-43 111z" />
    <glyph glyph-name="braceright.case" horiz-adv-x="440" 
d="M280 230v-180q0 -72 -43 -111t-107 -39h-40l-10 10v70l10 10h40q50 0 50 60v190q0 38 14 65t36 35v20q-22 8 -36 35t-14 65v190q0 60 -50 60h-40l-10 10v70l10 10h40q64 0 107 -39t43 -111v-180q0 -44 16 -62t54 -18l10 -10v-60l-10 -10q-38 0 -54 -18t-16 -62z" />
    <glyph glyph-name="exclamdown.case" horiz-adv-x="360" 
d="M130 300l20 190l10 10h40l10 -10l20 -190v-290l-10 -10h-80l-10 10v290zM120 690l10 10h100l10 -10v-100l-10 -10h-100l-10 10v100z" />
    <glyph glyph-name="guillemotleft.case" horiz-adv-x="700" 
d="M360 140l-10 -10h-80l-20 10l-160 160l-10 20v60l10 20l160 160l20 10h80l10 -10v-30l-180 -170v-20l180 -170v-30zM620 140l-10 -10h-80l-20 10l-160 160l-10 20v60l10 20l160 160l20 10h80l10 -10v-30l-180 -170v-20l180 -170v-30z" />
    <glyph glyph-name="periodcentered.case" horiz-adv-x="280" 
d="M200 300l-10 -10h-100l-10 10v100l10 10h100l10 -10v-100z" />
    <glyph glyph-name="guillemotright.case" horiz-adv-x="700" 
d="M350 130l-10 10v30l180 170v20l-180 170v30l10 10h80l20 -10l160 -160l10 -20v-60l-10 -20l-160 -160l-20 -10h-80zM90 130l-10 10v30l180 170v20l-180 170v30l10 10h80l20 -10l160 -160l10 -20v-60l-10 -20l-160 -160l-20 -10h-80z" />
    <glyph glyph-name="questiondown.case" horiz-adv-x="600" 
d="M80 180q0 69 23.5 107.5t76.5 82.5q49 41 64.5 64.5t15.5 65.5l10 10h80l10 -10q0 -60 -17.5 -96t-62.5 -74l-55 -47.5t-30 -41.5t-15 -61q0 -42 29 -71t91 -29q65 0 92.5 33t27.5 97l10 10h80l10 -10q0 -101 -55.5 -160.5t-164.5 -59.5q-99 0 -159.5 50.5t-60.5 139.5z
M250 690l10 10h100l10 -10v-100l-10 -10h-100l-10 10v100z" />
    <glyph glyph-name="endash.case" horiz-adv-x="620" 
d="M560 320l-10 -10h-480l-10 10v70l10 10h480l10 -10v-70z" />
    <glyph glyph-name="emdash.case" horiz-adv-x="1120" 
d="M1060 320l-10 -10h-980l-10 10v70l10 10h980l10 -10v-70z" />
    <glyph glyph-name="bullet.case" horiz-adv-x="390" 
d="M310 360v-10l-110 -110h-10l-110 110v10l110 110h10z" />
    <glyph glyph-name="guilsinglleft.case" horiz-adv-x="440" 
d="M360 140l-10 -10h-80l-20 10l-160 160l-10 20v60l10 20l160 160l20 10h80l10 -10v-30l-180 -170v-20l180 -170v-30z" />
    <glyph glyph-name="guilsinglright.case" horiz-adv-x="440" 
d="M90 130l-10 10v30l180 170v20l-180 170v30l10 10h80l20 -10l160 -160l10 -20v-60l-10 -20l-160 -160l-20 -10h-80z" />
    <glyph glyph-name="zero.zero" 
d="M40 350q0 191 68 275.5t182 84.5t182 -84.5t68 -275.5t-68 -275.5t-182 -84.5t-182 84.5t-68 275.5zM440 350q0 100 -20 160h-10l-190 -400v-10q20 -20 70 -20q150 0 150 270zM140 350q0 -100 20 -160h10l190 400v10q-20 20 -70 20q-150 0 -150 -270z" />
    <glyph glyph-name="quotedbl.ss01" horiz-adv-x="340" 
d="M260 400l-10 -10h-10l-10 10v290l10 10h10l10 -10v-290zM110 400l-10 -10h-10l-10 10v290l10 10h10l10 -10v-290z" />
    <glyph glyph-name="numbersign.ss01" horiz-adv-x="600" 
d="M340 20l30 170l-10 10h-180l-10 -10l-30 -180l-10 -10h-10l-10 10v10l30 170l-10 10h-90l-10 10v10l10 10h100l10 10l40 220l-10 10h-90l-10 10v10l10 10h100l10 10l30 180l10 10h10l10 -10v-10l-30 -170l10 -10h180l10 10l30 180l10 10h10l10 -10v-10l-30 -170l10 -10
h90l10 -10v-10l-10 -10h-100l-10 -10l-40 -220l10 -10h90l10 -10v-10l-10 -10h-100l-10 -10l-30 -180l-10 -10h-10l-10 10v10zM230 470l-10 -10l-40 -220l10 -10h180l10 10l40 220l-10 10h-180z" />
    <glyph glyph-name="quotesingle.ss01" horiz-adv-x="190" 
d="M110 400l-10 -10h-10l-10 10v290l10 10h10l10 -10v-290z" />
    <glyph glyph-name="parenleft.ss01" horiz-adv-x="400" 
d="M110 250q0 -65 0.5 -98t10.5 -74t18 -59t39 -57.5t56 -65l86 -86.5v-10h-20l-20 10l-81.5 82t-53.5 63t-37.5 57t-17 59.5t-10 76t-0.5 102.5t0.5 102.5t10 76t17 59.5t37.5 57t53.5 63l81.5 82l20 10h20v-10l-86 -86.5t-56 -65t-39 -57.5t-18 -59t-10.5 -74t-0.5 -98z
" />
    <glyph glyph-name="parenright.ss01" horiz-adv-x="400" 
d="M290 250q0 65 -0.5 98t-10.5 74t-18 59t-39 57.5t-56 65l-86 86.5v10h20l20 -10l81.5 -82t53.5 -63t37.5 -57t17 -59.5t10 -76t0.5 -102.5t-0.5 -102.5t-10 -76t-17 -59.5t-37.5 -57t-53.5 -63l-81.5 -82l-20 -10h-20v10l86 86.5t56 65t39 57.5t18 59t10.5 74t0.5 98z
" />
    <glyph glyph-name="slash.ss01" horiz-adv-x="490" 
d="M450 670l-390 -660l-10 -10h-10v30l390 660l10 10h10v-30z" />
    <glyph glyph-name="bracketleft.ss01" horiz-adv-x="340" 
d="M260 -190l-10 -10h-160l-10 10v880l10 10h160l10 -10v-10l-10 -10h-130l-10 -10v-820l10 -10h130l10 -10v-10z" />
    <glyph glyph-name="backslash.ss01" horiz-adv-x="490" 
d="M430 10l-390 660v30h10l10 -10l390 -660v-30h-10z" />
    <glyph glyph-name="bracketright.ss01" horiz-adv-x="340" 
d="M90 -200l-10 10v10l10 10h130l10 10v820l-10 10h-130l-10 10v10l10 10h160l10 -10v-880l-10 -10h-160z" />
    <glyph glyph-name="underscore.ss01" 
d="M540 -20l-10 -10h-480l-10 10v10l10 10h480l10 -10v-10z" />
    <glyph glyph-name="braceleft.ss01" horiz-adv-x="420" 
d="M150 260v-10q40 -13 40 -90v-230q0 -100 100 -100h40l10 -10v-10l-10 -10h-40q-56 0 -93 33t-37 97v230q0 44 -16 62t-54 18l-10 10v10l10 10q38 0 54 18t16 62v220q0 64 37 97t93 33h40l10 -10v-10l-10 -10h-40q-100 0 -100 -100v-220q0 -77 -40 -90z" />
    <glyph glyph-name="bar.ss01" horiz-adv-x="270" 
d="M150 -190l-10 -10h-10l-10 10v880l10 10h10l10 -10v-880z" />
    <glyph glyph-name="braceright.ss01" horiz-adv-x="420" 
d="M270 250v10q-40 13 -40 90v220q0 100 -100 100h-40l-10 10v10l10 10h40q56 0 93 -33t37 -97v-220q0 -44 16 -62t54 -18l10 -10v-10l-10 -10q-38 0 -54 -18t-16 -62v-230q0 -64 -37 -97t-93 -33h-40l-10 10v10l10 10h40q100 0 100 100v230q0 77 40 90z" />
    <glyph glyph-name="guillemotleft.ss01" horiz-adv-x="590" 
d="M320 30h-20l-20 10l-200 200v20l200 200l20 10h20v-10l-200 -200v-20l200 -200v-10zM510 30h-20l-20 10l-200 200v20l200 200l20 10h20v-10l-200 -200v-20l200 -200v-10z" />
    <glyph glyph-name="logicalnot.ss01" 
d="M500 100l-10 -10h-10l-10 10v130l-10 10h-390l-10 10v10l10 10h420l10 -10v-160z" />
    <glyph glyph-name="degree.ss01" horiz-adv-x="560" 
d="M80 510q0 82 59 141t141 59t141 -59t59 -141t-59 -141t-141 -59t-141 59t-59 141zM120 510q0 -68 46 -114t114 -46t114 46t46 114t-46 114t-114 46t-114 -46t-46 -114z" />
    <glyph glyph-name="guillemotright.ss01" horiz-adv-x="590" 
d="M290 30h-20v10l200 200v20l-200 200v10h20l20 -10l200 -200v-20l-200 -200zM100 30h-20v10l200 200v20l-200 200v10h20l20 -10l200 -200v-20l-200 -200z" />
    <glyph glyph-name="endash.ss01" horiz-adv-x="620" 
d="M560 250l-10 -10h-480l-10 10v10l10 10h480l10 -10v-10z" />
    <glyph glyph-name="emdash.ss01" horiz-adv-x="1120" 
d="M1060 250l-10 -10h-980l-10 10v10l10 10h980l10 -10v-10z" />
    <glyph glyph-name="quoteleft.ss01" horiz-adv-x="240" 
d="M70 580l10 30l50 80l10 10h20v-10l-50 -90v-10l10 -10h20l10 -10v-100l-10 -10h-60l-10 10v110z" />
    <glyph glyph-name="quoteright.ss01" horiz-adv-x="240" 
d="M170 580l-10 -30l-50 -80l-10 -10h-20v10l50 90v10l-10 10h-20l-10 10v100l10 10h60l10 -10v-110z" />
    <glyph glyph-name="quotesinglbase.ss01" horiz-adv-x="240" 
d="M160 0l-10 -30l-50 -80l-10 -10h-20v10l50 90v10l-10 10h-20l-10 10v100l10 10h60l10 -10v-110z" />
    <glyph glyph-name="quotedblleft.ss01" horiz-adv-x="400" 
d="M230 580l10 30l50 80l10 10h20v-10l-50 -90v-10l10 -10h20l10 -10v-100l-10 -10h-60l-10 10v110zM70 580l10 30l50 80l10 10h20v-10l-50 -90v-10l10 -10h20l10 -10v-100l-10 -10h-60l-10 10v110z" />
    <glyph glyph-name="quotedblright.ss01" horiz-adv-x="400" 
d="M170 580l-10 -30l-50 -80l-10 -10h-20v10l50 90v10l-10 10h-20l-10 10v100l10 10h60l10 -10v-110zM330 580l-10 -30l-50 -80l-10 -10h-20v10l50 90v10l-10 10h-20l-10 10v100l10 10h60l10 -10v-110z" />
    <glyph glyph-name="quotedblbase.ss01" horiz-adv-x="400" 
d="M160 0l-10 -30l-50 -80l-10 -10h-20v10l50 90v10l-10 10h-20l-10 10v100l10 10h60l10 -10v-110zM320 0l-10 -30l-50 -80l-10 -10h-20v10l50 90v10l-10 10h-20l-10 10v100l10 10h60l10 -10v-110z" />
    <glyph glyph-name="guilsinglleft.ss01" horiz-adv-x="400" 
d="M320 30h-20l-20 10l-200 200v20l200 200l20 10h20v-10l-200 -200v-20l200 -200v-10z" />
    <glyph glyph-name="guilsinglright.ss01" horiz-adv-x="400" 
d="M100 30h-20v10l200 200v20l-200 200v10h20l20 -10l200 -200v-20l-200 -200z" />
    <glyph glyph-name="arrowleft.ss01" horiz-adv-x="860" 
d="M340 0l-20 10l-240 240v10l240 240l20 10h20v-10l-220 -220v-10h630l10 -10v-10l-10 -10h-630v-10l220 -220v-10h-20z" />
    <glyph glyph-name="arrowup.ss01" horiz-adv-x="670" 
d="M580 460l10 -20v-20h-10l-220 220h-10v-630l-10 -10h-10l-10 10v630h-10l-220 -220h-10v20l10 20l240 240h10z" />
    <glyph glyph-name="arrowright.ss01" horiz-adv-x="860" 
d="M540 10l-20 -10h-20v10l220 220v10h-630l-10 10v10l10 10h630v10l-220 220v10h20l20 -10l240 -240v-10z" />
    <glyph glyph-name="arrowdown.ss01" horiz-adv-x="670" 
d="M590 260l-10 -20l-240 -240h-10l-240 240l-10 20v20h10l220 -220h10v630l10 10h10l10 -10v-630h10l220 220h10v-20z" />
    <glyph glyph-name="arrowboth.ss01" horiz-adv-x="1060" 
d="M320 500l20 10h20v-10l-220 -220v-10h780v10l-220 220v10h20l20 -10l240 -240v-10l-240 -240l-20 -10h-20v10l220 220v10h-780v-10l220 -220v-10h-20l-20 10l-240 240v10z" />
    <glyph glyph-name="arrowupdn.ss01" horiz-adv-x="670" 
d="M90 40l-10 20v20h10l220 -220h10v780h-10l-220 -220h-10v20l10 20l240 240h10l240 -240l10 -20v-20h-10l-220 220h-10v-780h10l220 220h10v-20l-10 -20l-240 -240h-10z" />
    <glyph glyph-name="uni2196.ss01" horiz-adv-x="660" 
d="M420 700l20 -10l10 -10v-10h-310v-10l440 -440v-10l-10 -10h-10l-440 440h-10v-310h-10l-10 10l-10 20v330l10 10h330z" />
    <glyph glyph-name="uni2197.ss01" horiz-adv-x="660" 
d="M220 690l20 10h330l10 -10v-330l-10 -20l-10 -10h-10v310h-10l-440 -440h-10l-10 10v10l440 440v10h-310v10z" />
    <glyph glyph-name="uni2198.ss01" horiz-adv-x="660" 
d="M240 0l-20 10l-10 10v10h310v10l-440 440v10l10 10h10l440 -440h10v310h10l10 -10l10 -20v-330l-10 -10h-330z" />
    <glyph glyph-name="uni2199.ss01" horiz-adv-x="660" 
d="M440 10l-20 -10h-330l-10 10v330l10 20l10 10h10v-310h10l440 440h10l10 -10v-10l-440 -440v-10h310v-10z" />
    <glyph glyph-name="a.ss02" horiz-adv-x="550" 
d="M390 450l10 40l10 10h70l10 -10v-480l-10 -10h-70l-10 10l-10 40h-10q-40 -60 -130 -60q-98 0 -159 70.5t-61 189.5t61 189.5t159 70.5q90 0 130 -60h10zM390 250q0 82 -34.5 126t-95.5 44t-95.5 -44t-34.5 -126t34.5 -126t95.5 -44t95.5 44t34.5 126z" />
    <glyph glyph-name="agrave.ss02" horiz-adv-x="550" 
d="M330 570l-10 -10h-50l-20 10l-110 100v20l10 10h70l20 -10l90 -100v-20zM390 450l10 40l10 10h70l10 -10v-480l-10 -10h-70l-10 10l-10 40h-10q-40 -60 -130 -60q-98 0 -159 70.5t-61 189.5t61 189.5t159 70.5q90 0 130 -60h10zM390 250q0 82 -34.5 126t-95.5 44
t-95.5 -44t-34.5 -126t34.5 -126t95.5 -44t95.5 44t34.5 126z" />
    <glyph glyph-name="aacute.ss02" horiz-adv-x="550" 
d="M380 670l-110 -100l-20 -10h-50l-10 10v20l90 100l20 10h70l10 -10v-20zM390 450l10 40l10 10h70l10 -10v-480l-10 -10h-70l-10 10l-10 40h-10q-40 -60 -130 -60q-98 0 -159 70.5t-61 189.5t61 189.5t159 70.5q90 0 130 -60h10zM390 250q0 82 -34.5 126t-95.5 44
t-95.5 -44t-34.5 -126t34.5 -126t95.5 -44t95.5 44t34.5 126z" />
    <glyph glyph-name="acircumflex.ss02" horiz-adv-x="550" 
d="M420 570l-10 -10h-50l-20 10l-70 60h-20l-70 -60l-20 -10h-50l-10 10v20l90 100l20 10h100l20 -10l90 -100v-20zM390 450l10 40l10 10h70l10 -10v-480l-10 -10h-70l-10 10l-10 40h-10q-40 -60 -130 -60q-98 0 -159 70.5t-61 189.5t61 189.5t159 70.5q90 0 130 -60h10z
M390 250q0 82 -34.5 126t-95.5 44t-95.5 -44t-34.5 -126t34.5 -126t95.5 -44t95.5 44t34.5 126z" />
    <glyph glyph-name="atilde.ss02" horiz-adv-x="550" 
d="M320 550q-34 0 -60.5 17.5t-45 35t-34.5 17.5q-40 0 -40 -50l-10 -10h-30l-10 10q0 48 25 79t75 31q34 0 60.5 -17.5t45 -35t34.5 -17.5q40 0 40 50l10 10h30l10 -10q0 -48 -25 -79t-75 -31zM390 450l10 40l10 10h70l10 -10v-480l-10 -10h-70l-10 10l-10 40h-10
q-40 -60 -130 -60q-98 0 -159 70.5t-61 189.5t61 189.5t159 70.5q90 0 130 -60h10zM390 250q0 82 -34.5 126t-95.5 44t-95.5 -44t-34.5 -126t34.5 -126t95.5 -44t95.5 44t34.5 126z" />
    <glyph glyph-name="adieresis.ss02" horiz-adv-x="550" 
d="M400 590l-10 -10h-80l-10 10v80l10 10h80l10 -10v-80zM220 590l-10 -10h-80l-10 10v80l10 10h80l10 -10v-80zM390 450l10 40l10 10h70l10 -10v-480l-10 -10h-70l-10 10l-10 40h-10q-40 -60 -130 -60q-98 0 -159 70.5t-61 189.5t61 189.5t159 70.5q90 0 130 -60h10z
M390 250q0 82 -34.5 126t-95.5 44t-95.5 -44t-34.5 -126t34.5 -126t95.5 -44t95.5 44t34.5 126z" />
    <glyph glyph-name="aring.ss02" horiz-adv-x="550" 
d="M390 450l10 40l10 10h70l10 -10v-480l-10 -10h-70l-10 10l-10 40h-10q-40 -60 -130 -60q-98 0 -159 70.5t-61 189.5t61 189.5t159 70.5q90 0 130 -60h10zM390 250q0 82 -34.5 126t-95.5 44t-95.5 -44t-34.5 -126t34.5 -126t95.5 -44t95.5 44t34.5 126zM360 640
q0 -38 -28 -64t-72 -26t-72 26t-28 64t28 64t72 26t72 -26t28 -64zM300 640q0 40 -40 40t-40 -40t40 -40t40 40z" />
    <glyph glyph-name="parenleft.ss03" horiz-adv-x="390" 
d="M310 10l-10 -10h-20l-20 10l-73 73.5t-48 54t-33.5 46.5t-15.5 44t-9.5 53.5t-0.5 68.5t0.5 68.5t9.5 53.5t15.5 44t33.5 46.5t48 54l73 73.5l20 10h20l10 -10v-70l-52 -52.5t-34.5 -39.5t-24.5 -36t-11.5 -36.5t-7 -46t-0.5 -59.5t0.5 -59.5t7 -46t11.5 -36.5t24.5 -36
t34.5 -39.5l52 -52.5v-70z" />
    <glyph glyph-name="parenright.ss03" horiz-adv-x="390" 
d="M90 0l-10 10v70l52 52.5t34.5 39.5t24.5 36t11.5 36.5t7 46t0.5 59.5t-0.5 59.5t-7 46t-11.5 36.5t-24.5 36t-34.5 39.5l-52 52.5v70l10 10h20l20 -10l73 -73.5t48 -54t33.5 -46.5t15.5 -44t9.5 -53.5t0.5 -68.5t-0.5 -68.5t-9.5 -53.5t-15.5 -44t-33.5 -46.5t-48 -54
l-73 -73.5l-20 -10h-20z" />
    <glyph glyph-name="bracketleft.ss03" horiz-adv-x="370" 
d="M290 10l-10 -10h-190l-10 10v680l10 10h190l10 -10v-70l-10 -10h-90l-10 -10v-500l10 -10h90l10 -10v-70z" />
    <glyph glyph-name="bracketright.ss03" horiz-adv-x="370" 
d="M90 0l-10 10v70l10 10h90l10 10v500l-10 10h-90l-10 10v70l10 10h190l10 -10v-680l-10 -10h-190z" />
    <glyph glyph-name="braceleft.ss03" horiz-adv-x="440" 
d="M160 150v80q0 44 -16 62t-54 18l-10 10v60l10 10q38 0 54 18t16 62v80q0 72 43 111t107 39h40l10 -10v-70l-10 -10h-40q-50 0 -50 -60v-90q0 -38 -14 -65t-36 -35v-20q22 -8 36 -35t14 -65v-90q0 -60 50 -60h40l10 -10v-70l-10 -10h-40q-64 0 -107 39t-43 111z" />
    <glyph glyph-name="braceright.ss03" horiz-adv-x="440" 
d="M280 230v-80q0 -72 -43 -111t-107 -39h-40l-10 10v70l10 10h40q50 0 50 60v90q0 38 14 65t36 35v20q-22 8 -36 35t-14 65v90q0 60 -50 60h-40l-10 10v70l10 10h40q64 0 107 -39t43 -111v-80q0 -44 16 -62t54 -18l10 -10v-60l-10 -10q-38 0 -54 -18t-16 -62z" />
    <glyph glyph-name="parenleft.ss04" horiz-adv-x="380" 
d="M110 350q0 -42 0.5 -64t9.5 -51t16 -43t35.5 -48t51 -56.5l77.5 -77.5v-10h-20l-20 10l-73 73.5t-48 54t-33.5 46.5t-15.5 44t-9.5 53.5t-0.5 68.5t0.5 68.5t9.5 53.5t15.5 44t33.5 46.5t48 54l73 73.5l20 10h20v-10l-77.5 -77.5t-51 -56.5t-35.5 -48t-16 -43t-9.5 -51
t-0.5 -64z" />
    <glyph glyph-name="parenright.ss04" horiz-adv-x="380" 
d="M270 350q0 42 -0.5 64t-9.5 51t-16 43t-35.5 48t-51 56.5l-77.5 77.5v10h20l20 -10l73 -73.5t48 -54t33.5 -46.5t15.5 -44t9.5 -53.5t0.5 -68.5t-0.5 -68.5t-9.5 -53.5t-15.5 -44t-33.5 -46.5t-48 -54l-73 -73.5l-20 -10h-20v10l77.5 77.5t51 56.5t35.5 48t16 43t9.5 51
t0.5 64z" />
    <glyph glyph-name="bracketleft.ss04" horiz-adv-x="340" 
d="M260 10l-10 -10h-160l-10 10v680l10 10h160l10 -10v-10l-10 -10h-130l-10 -10v-620l10 -10h130l10 -10v-10z" />
    <glyph glyph-name="bracketright.ss04" horiz-adv-x="340" 
d="M90 0l-10 10v10l10 10h130l10 10v620l-10 10h-130l-10 10v10l10 10h160l10 -10v-680l-10 -10h-160z" />
    <glyph glyph-name="braceleft.ss04" horiz-adv-x="420" 
d="M150 360v-10q40 -13 40 -90v-130q0 -100 100 -100h40l10 -10v-10l-10 -10h-40q-56 0 -93 33t-37 97v130q0 44 -16 62t-54 18l-10 10v10l10 10q38 0 54 18t16 62v120q0 64 37 97t93 33h40l10 -10v-10l-10 -10h-40q-100 0 -100 -100v-120q0 -77 -40 -90z" />
    <glyph glyph-name="bar.ss04" horiz-adv-x="270" 
d="M150 10l-10 -10h-10l-10 10v680l10 10h10l10 -10v-680z" />
    <glyph glyph-name="braceright.ss04" horiz-adv-x="420" 
d="M270 350v10q-40 13 -40 90v120q0 100 -100 100h-40l-10 10v10l10 10h40q56 0 93 -33t37 -97v-120q0 -44 16 -62t54 -18l10 -10v-10l-10 -10q-38 0 -54 -18t-16 -62v-130q0 -64 -37 -97t-93 -33h-40l-10 10v10l10 10h40q100 0 100 100v130q0 77 40 90z" />
    <glyph glyph-name="slash.ss05" horiz-adv-x="750" 
d="M710 620l-610 -610l-20 -10h-30l-10 10v70l610 610l20 10h30l10 -10v-70z" />
    <glyph glyph-name="backslash.ss05" horiz-adv-x="750" 
d="M650 10l-610 610v70l10 10h30l20 -10l610 -610v-70l-10 -10h-30z" />
    <glyph glyph-name="slash.ss06" horiz-adv-x="780" 
d="M740 680l-670 -670l-20 -10h-10v20l670 670l20 10h10v-20z" />
    <glyph glyph-name="backslash.ss06" horiz-adv-x="780" 
d="M710 10l-670 670v20h10l20 -10l670 -670v-20h-10z" />
    <glyph glyph-name="emdash.ss07" horiz-adv-x="1620" 
d="M1560 220l-10 -10h-1480l-10 10v70l10 10h1480l10 -10v-70z" />
    <glyph glyph-name="emdash.ss08" horiz-adv-x="1620" 
d="M1560 250l-10 -10h-1480l-10 10v10l10 10h1480l10 -10v-10z" />
    <glyph glyph-name="ampersand.ss09" horiz-adv-x="680" 
d="M320 80q75 0 107.5 38t32.5 92v210l10 10h140l10 -10v-70l-10 -10h-40l-10 -10v-120q0 -91 -60.5 -155.5t-179.5 -64.5t-179.5 64.5t-60.5 155.5q0 76 33 118.5t77 51.5v10q-39 16 -64.5 53t-25.5 87q0 83 56.5 131.5t153.5 48.5t153.5 -48.5t56.5 -131.5l-10 -10h-80
l-10 10q0 90 -110 90t-110 -90q0 -46 29 -73t81 -27h40l10 -10v-70l-10 -10h-30q-140 0 -140 -130q0 -54 32.5 -92t107.5 -38z" />
    <glyph glyph-name="one.ss10" horiz-adv-x="320" 
d="M240 10l-10 -10h-80l-10 10v520l-10 10h-80l-10 10v50l90 90l20 10h80l10 -10v-680z" />
    <glyph glyph-name="commaaccent" horiz-adv-x="250" 
d="M170 -130l-10 -30l-50 -50l-20 -10h-20v10l40 60v10l-10 10h-20l-10 10v70l10 10h80l10 -10v-80z" />
    <glyph glyph-name="orn001" horiz-adv-x="660" 
d="M580 -190l-10 -10h-480l-10 10v880l10 10h480l10 -10v-880zM170 600v-700l10 -10h300l10 10v700l-10 10h-300z" />
    <glyph glyph-name="orn002" horiz-adv-x="660" 
d="M580 -190l-10 -10h-480l-10 10v880l10 10h480l10 -10v-880z" />
    <glyph glyph-name="orn003" horiz-adv-x="660" 
d="M580 10l-10 -10h-480l-10 10v680l10 10h480l10 -10v-680zM170 600v-500l10 -10h300l10 10v500l-10 10h-300z" />
    <glyph glyph-name="orn004" horiz-adv-x="660" 
d="M580 10l-10 -10h-480l-10 10v680l10 10h480l10 -10v-680z" />
    <glyph glyph-name="orn005" horiz-adv-x="660" 
d="M580 10l-10 -10h-480l-10 10v480l10 10h480l10 -10v-480zM170 400v-300l10 -10h300l10 10v300l-10 10h-300z" />
    <glyph glyph-name="orn006" horiz-adv-x="660" 
d="M580 10l-10 -10h-480l-10 10v480l10 10h480l10 -10v-480z" />
    <glyph glyph-name="orn007" horiz-adv-x="660" 
d="M580 -190l-10 -10h-480l-10 10v880l10 10h480l10 -10v-880zM110 660v-820l10 -10h420l10 10v820l-10 10h-420z" />
    <glyph glyph-name="orn008" horiz-adv-x="660" 
d="M580 10l-10 -10h-480l-10 10v680l10 10h480l10 -10v-680zM110 660v-620l10 -10h420l10 10v620l-10 10h-420z" />
    <glyph glyph-name="orn009" horiz-adv-x="660" 
d="M580 10l-10 -10h-480l-10 10v480l10 10h480l10 -10v-480zM110 460v-420l10 -10h420l10 10v420l-10 10h-420z" />
    <glyph glyph-name="orn010" horiz-adv-x="660" 
d="M580 -190l-10 -10h-480l-10 10v880l10 10h480l10 -10v-880zM540 -140h10v780h-10l-190 -380v-20zM120 640h-10v-780h10l190 380v20zM140 670v-10l180 -360h20l180 360v10h-380zM520 -160l-180 360h-20l-180 -360v-10h380v10z" />
    <glyph glyph-name="orn011" horiz-adv-x="660" 
d="M580 10l-10 -10h-480l-10 10v680l10 10h480l10 -10v-680zM360 330l180 -270h10v580h-10l-180 -270v-40zM120 640h-10v-580h10l180 270v40zM340 390l180 270v10h-380v-10l180 -270h20zM140 40v-10h380v10l-180 270h-20z" />
    <glyph glyph-name="orn012" horiz-adv-x="660" 
d="M580 10l-10 -10h-480l-10 10v480l10 10h480l10 -10v-480zM360 240l180 -180h10v380h-10l-180 -180v-20zM120 440h-10v-380h10l180 180v20zM340 280l180 180v10h-380v-10l180 -180h20zM140 40v-10h380v10l-180 180h-20z" />
    <glyph glyph-name="orn013" horiz-adv-x="660" 
d="M80 10l10 -10h-10v10zM100 0l-20 20v10l30 -30h-10zM120 0l-40 40v10l50 -50h-10zM140 0l-60 60v10l70 -70h-10zM160 0l-80 80v10l90 -90h-10zM180 0l-100 100v10l110 -110h-10zM200 0l-120 120v10l130 -130h-10zM220 0l-140 140v10l150 -150h-10zM240 0l-160 160v10
l170 -170h-10zM260 0l-180 180v10l190 -190h-10zM280 0l-200 200v10l210 -210h-10zM300 0l-220 220v10l230 -230h-10zM320 0l-240 240v10l250 -250h-10zM340 0l-260 260v10l270 -270h-10zM360 0l-280 280v10l290 -290h-10zM380 0l-300 300v10l310 -310h-10zM400 0l-320 320
v10l330 -330h-10zM420 0l-340 340v10l350 -350h-10zM440 0l-360 360v10l370 -370h-10zM460 0l-380 380v10l390 -390h-10zM480 0l-400 400v10l410 -410h-10zM500 0l-420 420v10l430 -430h-10zM520 0l-440 440v10l450 -450h-10zM540 0l-460 460v10l470 -470h-10zM560 0
l-480 480v10l490 -490h-10zM580 0l-500 500v10l500 -500v-10zM580 20l-500 500v10l500 -500v-10zM580 40l-500 500v10l500 -500v-10zM580 60l-500 500v10l500 -500v-10zM580 80l-500 500v10l500 -500v-10zM580 100l-500 500v10l500 -500v-10zM580 120l-500 500v10l500 -500
v-10zM580 140l-500 500v10l500 -500v-10zM580 160l-500 500v10l500 -500v-10zM580 180l-500 500v10l500 -500v-10zM580 200l-500 500h10l490 -490v-10zM570 700l10 -10v-10l-20 20h10zM550 700l30 -30v-10l-40 40h10zM530 700l50 -50v-10l-60 60h10zM510 700l70 -70v-10
l-80 80h10zM490 700l90 -90v-10l-100 100h10zM470 700l110 -110v-10l-120 120h10zM450 700l130 -130v-10l-140 140h10zM430 700l150 -150v-10l-160 160h10zM410 700l170 -170v-10l-180 180h10zM390 700l190 -190v-10l-200 200h10zM370 700l210 -210v-10l-220 220h10z
M350 700l230 -230v-10l-240 240h10zM330 700l250 -250v-10l-260 260h10zM310 700l270 -270v-10l-280 280h10zM290 700l290 -290v-10l-300 300h10zM270 700l310 -310v-10l-320 320h10zM250 700l330 -330v-10l-340 340h10zM230 700l350 -350v-10l-360 360h10zM210 700
l370 -370v-10l-380 380h10zM190 700l390 -390v-10l-400 400h10zM170 700l410 -410v-10l-420 420h10zM150 700l430 -430v-10l-440 440h10zM130 700l450 -450v-10l-460 460h10zM110 700l470 -470v-10l-480 480h10z" />
    <glyph glyph-name="orn014" horiz-adv-x="660" 
d="M580 690l-10 10h10v-10zM560 700l20 -20v-10l-30 30h10zM540 700l40 -40v-10l-50 50h10zM520 700l60 -60v-10l-70 70h10zM500 700l80 -80v-10l-90 90h10zM480 700l100 -100v-10l-110 110h10zM460 700l120 -120v-10l-130 130h10zM440 700l140 -140v-10l-150 150h10z
M420 700l160 -160v-10l-170 170h10zM400 700l180 -180v-10l-190 190h10zM380 700l200 -200v-10l-210 210h10zM360 700l220 -220v-10l-230 230h10zM340 700l240 -240v-10l-250 250h10zM320 700l260 -260v-10l-270 270h10zM300 700l280 -280v-10l-290 290h10zM280 700
l300 -300v-10l-310 310h10zM260 700l320 -320v-10l-330 330h10zM240 700l340 -340v-10l-350 350h10zM220 700l360 -360v-10l-370 370h10zM200 700l380 -380v-10l-390 390h10zM180 700l400 -400v-10l-410 410h10zM160 700l420 -420v-10l-430 430h10zM140 700l440 -440v-10
l-450 450h10zM120 700l460 -460v-10l-470 470h10zM100 700l480 -480v-10l-490 490h10zM80 700l500 -500v-10l-500 500v10zM80 680l500 -500v-10l-500 500v10zM80 660l500 -500v-10l-500 500v10zM80 640l500 -500v-10l-500 500v10zM80 620l500 -500v-10l-500 500v10zM80 600
l500 -500v-10l-500 500v10zM80 580l500 -500v-10l-500 500v10zM80 560l500 -500v-10l-500 500v10zM80 540l500 -500v-10l-500 500v10zM80 520l500 -500v-10l-500 500v10zM80 500l500 -500h-10l-490 490v10zM90 0l-10 10v10l20 -20h-10zM110 0l-30 30v10l40 -40h-10zM130 0
l-50 50v10l60 -60h-10zM150 0l-70 70v10l80 -80h-10zM170 0l-90 90v10l100 -100h-10zM190 0l-110 110v10l120 -120h-10zM210 0l-130 130v10l140 -140h-10zM230 0l-150 150v10l160 -160h-10zM250 0l-170 170v10l180 -180h-10zM270 0l-190 190v10l200 -200h-10zM290 0
l-210 210v10l220 -220h-10zM310 0l-230 230v10l240 -240h-10zM330 0l-250 250v10l260 -260h-10zM350 0l-270 270v10l280 -280h-10zM370 0l-290 290v10l300 -300h-10zM390 0l-310 310v10l320 -320h-10zM410 0l-330 330v10l340 -340h-10zM430 0l-350 350v10l360 -360h-10z
M450 0l-370 370v10l380 -380h-10zM470 0l-390 390v10l400 -400h-10zM490 0l-410 410v10l420 -420h-10zM510 0l-430 430v10l440 -440h-10zM530 0l-450 450v10l460 -460h-10zM550 0l-470 470v10l480 -480h-10z" />
    <glyph glyph-name="orn015" horiz-adv-x="660" 
d="M570 0l10 10v-10h-10zM580 20l-20 -20h-10l30 30v-10zM580 40l-40 -40h-10l50 50v-10zM580 60l-60 -60h-10l70 70v-10zM580 80l-80 -80h-10l90 90v-10zM580 100l-100 -100h-10l110 110v-10zM580 120l-120 -120h-10l130 130v-10zM580 140l-140 -140h-10l150 150v-10z
M580 160l-160 -160h-10l170 170v-10zM580 180l-180 -180h-10l190 190v-10zM580 200l-200 -200h-10l210 210v-10zM580 220l-220 -220h-10l230 230v-10zM580 240l-240 -240h-10l250 250v-10zM580 260l-260 -260h-10l270 270v-10zM580 280l-280 -280h-10l290 290v-10zM580 300
l-300 -300h-10l310 310v-10zM580 320l-320 -320h-10l330 330v-10zM580 340l-340 -340h-10l350 350v-10zM580 360l-360 -360h-10l370 370v-10zM580 380l-380 -380h-10l390 390v-10zM580 400l-400 -400h-10l410 410v-10zM580 420l-420 -420h-10l430 430v-10zM580 440
l-440 -440h-10l450 450v-10zM580 460l-460 -460h-10l470 470v-10zM580 480l-480 -480h-10l490 490v-10zM580 500l-500 -500v10l500 500v-10zM580 520l-500 -500v10l500 500v-10zM580 540l-500 -500v10l500 500v-10zM580 560l-500 -500v10l500 500v-10zM580 580l-500 -500v10
l500 500v-10zM580 600l-500 -500v10l500 500v-10zM580 620l-500 -500v10l500 500v-10zM580 640l-500 -500v10l500 500v-10zM580 660l-500 -500v10l500 500v-10zM580 680l-500 -500v10l500 500v-10zM580 700l-500 -500v10l490 490h10zM80 690l10 10h10l-20 -20v10zM80 670
l30 30h10l-40 -40v10zM80 650l50 50h10l-60 -60v10zM80 630l70 70h10l-80 -80v10zM80 610l90 90h10l-100 -100v10zM80 590l110 110h10l-120 -120v10zM80 570l130 130h10l-140 -140v10zM80 550l150 150h10l-160 -160v10zM80 530l170 170h10l-180 -180v10zM80 510l190 190h10
l-200 -200v10zM80 490l210 210h10l-220 -220v10zM80 470l230 230h10l-240 -240v10zM80 450l250 250h10l-260 -260v10zM80 430l270 270h10l-280 -280v10zM80 410l290 290h10l-300 -300v10zM80 390l310 310h10l-320 -320v10zM80 370l330 330h10l-340 -340v10zM80 350l350 350
h10l-360 -360v10zM80 330l370 370h10l-380 -380v10zM80 310l390 390h10l-400 -400v10zM80 290l410 410h10l-420 -420v10zM80 270l430 430h10l-440 -440v10zM80 250l450 450h10l-460 -460v10zM80 230l470 470h10l-480 -480v10z" />
    <glyph glyph-name="orn016" horiz-adv-x="660" 
d="M90 700l-10 -10v10h10zM80 680l20 20h10l-30 -30v10zM80 660l40 40h10l-50 -50v10zM80 640l60 60h10l-70 -70v10zM80 620l80 80h10l-90 -90v10zM80 600l100 100h10l-110 -110v10zM80 580l120 120h10l-130 -130v10zM80 560l140 140h10l-150 -150v10zM80 540l160 160h10
l-170 -170v10zM80 520l180 180h10l-190 -190v10zM80 500l200 200h10l-210 -210v10zM80 480l220 220h10l-230 -230v10zM80 460l240 240h10l-250 -250v10zM80 440l260 260h10l-270 -270v10zM80 420l280 280h10l-290 -290v10zM80 400l300 300h10l-310 -310v10zM80 380l320 320
h10l-330 -330v10zM80 360l340 340h10l-350 -350v10zM80 340l360 360h10l-370 -370v10zM80 320l380 380h10l-390 -390v10zM80 300l400 400h10l-410 -410v10zM80 280l420 420h10l-430 -430v10zM80 260l440 440h10l-450 -450v10zM80 240l460 460h10l-470 -470v10zM80 220
l480 480h10l-490 -490v10zM80 200l500 500v-10l-500 -500v10zM80 180l500 500v-10l-500 -500v10zM80 160l500 500v-10l-500 -500v10zM80 140l500 500v-10l-500 -500v10zM80 120l500 500v-10l-500 -500v10zM80 100l500 500v-10l-500 -500v10zM80 80l500 500v-10l-500 -500v10
zM80 60l500 500v-10l-500 -500v10zM80 40l500 500v-10l-500 -500v10zM80 20l500 500v-10l-500 -500v10zM80 0l500 500v-10l-490 -490h-10zM580 10l-10 -10h-10l20 20v-10zM580 30l-30 -30h-10l40 40v-10zM580 50l-50 -50h-10l60 60v-10zM580 70l-70 -70h-10l80 80v-10z
M580 90l-90 -90h-10l100 100v-10zM580 110l-110 -110h-10l120 120v-10zM580 130l-130 -130h-10l140 140v-10zM580 150l-150 -150h-10l160 160v-10zM580 170l-170 -170h-10l180 180v-10zM580 190l-190 -190h-10l200 200v-10zM580 210l-210 -210h-10l220 220v-10zM580 230
l-230 -230h-10l240 240v-10zM580 250l-250 -250h-10l260 260v-10zM580 270l-270 -270h-10l280 280v-10zM580 290l-290 -290h-10l300 300v-10zM580 310l-310 -310h-10l320 320v-10zM580 330l-330 -330h-10l340 340v-10zM580 350l-350 -350h-10l360 360v-10zM580 370
l-370 -370h-10l380 380v-10zM580 390l-390 -390h-10l400 400v-10zM580 410l-410 -410h-10l420 420v-10zM580 430l-430 -430h-10l440 440v-10zM580 450l-450 -450h-10l460 460v-10zM580 470l-470 -470h-10l480 480v-10z" />
    <glyph glyph-name="uni00AD.case" horiz-adv-x="410" 
d="M350 315l-10 -10h-270l-10 10v70l10 10h270l10 -10v-70z" />
    <glyph glyph-name="uni2007.tf" 
 />
    <glyph glyph-name="uni2007.tosf" 
 />
    </font>
</defs>
</svg>
